<?xml version="1.0" encoding="UTF-8"?>
<svg xmlns="http://www.w3.org/2000/svg" xmlns:xlink="http://www.w3.org/1999/xlink" width="24px" height="24px" viewBox="0 0 24 24" version="1.1">
<g id="surface1">
<path style="fill-rule:nonzero;fill:rgb(100%,100%,100%);fill-opacity:1;stroke-width:1;stroke-linecap:butt;stroke-linejoin:miter;stroke:rgb(100%,100%,100%);stroke-opacity:1;stroke-miterlimit:4;" d="M 7.125326 4.19043 C 6.797201 5.539388 6.817708 5.466471 6.519206 6.699219 C 6.482747 6.851888 6.423503 6.895182 6.268555 6.897461 L 5.931315 6.897461 C 5.794596 6.895182 5.739909 6.861003 5.698893 6.726562 C 5.411784 5.803711 5.024414 4.520833 4.764648 3.664062 C 4.668945 3.347331 4.732747 3.354167 4.983398 3.361003 C 5.069987 3.363281 5.154297 3.361003 5.240885 3.361003 C 5.359375 3.363281 5.420898 3.408854 5.452799 3.527344 C 5.537109 3.830404 5.594076 4.062826 6.077148 5.967773 C 6.086263 6.004232 6.097656 6.04069 6.109049 6.07487 L 6.136393 6.07487 C 6.147786 6.029297 6.161458 5.983724 6.172852 5.938151 C 6.355143 5.16569 6.535156 4.393229 6.719727 3.623047 C 6.774414 3.383789 6.876953 3.358724 7.116211 3.358724 L 7.296224 3.358724 C 7.458008 3.361003 7.505859 3.395182 7.546875 3.554687 C 7.685872 4.101562 8.096029 5.94043 8.171224 6.140951 C 8.291992 5.712565 8.130208 6.325521 8.838867 3.586589 C 8.888997 3.397461 8.93457 3.358724 9.128255 3.358724 L 9.424479 3.358724 C 9.552083 3.361003 9.588542 3.402018 9.558919 3.525065 C 9.501953 3.748372 9.49056 3.757487 8.590495 6.639974 C 8.517578 6.872396 8.492513 6.892904 8.248698 6.892904 L 8.000326 6.892904 C 7.829427 6.892904 7.783854 6.863281 7.742839 6.69694 C 7.642578 6.316406 7.195964 4.454753 7.125326 4.19043 Z M 3.942057 6.797201 C 4.040039 6.933919 4.131185 6.945312 4.272461 6.854167 L 4.420573 6.753906 C 4.580078 6.649089 4.591471 6.608073 4.504883 6.439453 C 4.404622 6.241211 4.354492 6.033854 4.356771 5.808268 C 4.356771 5.735352 4.370443 4.502604 4.336263 4.242839 C 4.272461 3.791667 4.042318 3.474935 3.593424 3.335937 C 3.342773 3.256185 3.085286 3.258464 2.827799 3.265299 C 2.472331 3.274414 2.13737 3.374674 1.822917 3.531901 C 1.781901 3.554687 1.736328 3.604818 1.727214 3.648112 C 1.708984 3.739258 1.702148 3.83724 1.711263 3.930664 C 1.724935 4.069661 1.772786 4.094727 1.902669 4.051432 C 2.023437 4.010417 2.13737 3.960286 2.258138 3.923828 C 2.597656 3.821289 2.941732 3.773437 3.290365 3.885091 C 3.456706 3.935221 3.563802 4.046875 3.625326 4.208659 C 3.695964 4.393229 3.682292 4.584635 3.682292 4.773763 C 3.682292 4.903646 3.680013 4.903646 3.552409 4.880859 C 3.226562 4.819336 2.902995 4.76237 2.570312 4.807943 C 2.214844 4.855794 1.900391 4.978841 1.677083 5.277344 C 1.462891 5.557617 1.442383 5.876628 1.503906 6.202474 C 1.567708 6.553385 1.779622 6.804036 2.121419 6.913411 C 2.604492 7.070638 3.060221 6.990885 3.472656 6.692383 C 3.561523 6.626302 3.641276 6.546549 3.734701 6.469076 C 3.805339 6.585286 3.869141 6.69694 3.942057 6.797201 Z M 3.58431 5.352539 C 3.654948 5.361654 3.689128 5.398112 3.68457 5.473307 C 3.680013 5.562174 3.686849 5.651042 3.677734 5.739909 C 3.650391 6.013346 3.497721 6.202474 3.258464 6.323242 C 3.064779 6.421224 2.861979 6.459961 2.645508 6.441732 C 2.290039 6.409831 2.15332 6.134115 2.1875 5.824219 C 2.217122 5.530273 2.385742 5.366211 2.691081 5.313802 C 3.014648 5.256836 3.064779 5.288737 3.58431 5.352539 Z M 11.757812 6.879232 C 12.256836 6.676432 12.527995 6.263997 12.441406 5.708008 C 12.388997 5.366211 12.163411 5.140625 11.851237 5.015299 C 11.504883 4.878581 11.058268 4.773763 10.723307 4.589193 C 10.620768 4.534505 10.55013 4.441081 10.545573 4.311198 C 10.536458 4.051432 10.643555 3.907878 10.905599 3.846354 C 11.124349 3.798503 11.347656 3.796224 11.564128 3.83724 C 11.735026 3.871419 11.899089 3.935221 12.06543 3.985352 C 12.13151 4.005859 12.204427 4.035482 12.247721 3.948893 C 12.338867 3.777995 12.259115 3.509115 12.076823 3.436198 C 11.550456 3.226562 11.010417 3.165039 10.479492 3.39974 C 10.137695 3.55013 9.902995 3.807617 9.871094 4.201823 C 9.832357 4.652995 10.032878 4.983398 10.436198 5.177083 C 10.616211 5.265951 10.812174 5.316081 11.001302 5.386719 C 11.192708 5.457357 11.381836 5.523437 11.566406 5.600911 C 11.855794 5.723958 11.837565 6.166016 11.596029 6.302734 C 10.946615 6.660482 10.073893 6.245768 9.973633 6.213867 C 9.896159 6.188802 9.848307 6.218424 9.825521 6.300456 C 9.754883 6.564779 9.841471 6.740234 10.09668 6.833659 C 10.607096 7.018229 11.261068 7.077474 11.757812 6.879232 Z M 7.938802 10.691406 C 9.130534 10.554687 10.251628 10.203776 11.283854 9.59082 C 11.470703 9.479167 11.646159 9.349284 11.823893 9.22168 C 11.994792 9.100911 11.899089 8.791016 11.55957 8.936849 C 10.285807 9.479167 8.955078 9.782227 7.57194 9.848307 C 6.856445 9.882487 6.147786 9.841471 5.436849 9.736654 C 3.958008 9.522461 2.568034 9.05306 1.276042 8.303385 C 1.225911 8.276042 1.17806 8.244141 1.123372 8.232747 C 1.00944 8.207682 0.943359 8.344401 1.066406 8.460612 C 1.629232 8.977865 2.246745 9.417643 2.921224 9.766276 C 4.179036 10.41569 5.509766 10.766602 6.931641 10.750651 C 7.26888 10.730143 7.60612 10.727865 7.938802 10.691406 Z M 12.033529 8.53125 C 12.379883 8.549479 12.486979 8.670247 12.400391 9.005208 C 12.311523 9.351562 12.183919 9.688802 12.074544 10.030599 C 12.054036 10.098958 11.976562 10.178711 12.056315 10.235677 C 12.142904 10.297201 12.208984 10.212891 12.268229 10.160482 C 12.507487 9.937174 12.676107 9.668294 12.794596 9.367513 C 12.922201 9.05306 13.013346 8.729492 12.999674 8.385417 C 12.992839 8.239583 12.95638 8.180339 12.815104 8.139323 C 12.689779 8.105143 12.557617 8.073242 12.430013 8.064128 C 11.924154 8.023112 11.434245 8.075521 10.976237 8.3125 C 10.90332 8.351237 10.834961 8.399089 10.773437 8.451497 C 10.746094 8.472005 10.698242 8.574544 10.828125 8.595052 C 10.873698 8.601888 10.919271 8.592773 10.967122 8.588216 C 11.363607 8.549479 11.637044 8.510742 12.033529 8.53125 Z M 12.033529 8.53125 " transform="matrix(1.714286,0,0,1.714286,0,0)"/>
</g>
</svg>
