<?xml version="1.0" encoding="UTF-8"?>
<svg xmlns="http://www.w3.org/2000/svg" xmlns:xlink="http://www.w3.org/1999/xlink" width="24px" height="px" viewBox="0 0 24 24" version="1.1">
<g id="surface1">
<path style=" stroke:none;fill-rule:nonzero;fill:rgb(10.196079%,73.725492%,99.607843%);fill-opacity:1;" d="M 12.824219 12 C 12.824219 10.066406 14.351562 8.5 16.238281 8.5 C 18.121094 8.5 19.648438 10.066406 19.648438 12 C 19.648438 13.933594 18.121094 15.5 16.238281 15.5 C 14.355469 15.5 12.824219 13.933594 12.824219 12 Z M 12.824219 12 "/>
<path style=" stroke:none;fill-rule:nonzero;fill:rgb(3.921569%,81.176472%,51.372552%);fill-opacity:1;" d="M 6 19 C 6 17.066406 7.527344 15.5 9.414062 15.5 L 12.824219 15.5 L 12.824219 19 C 12.824219 20.933594 11.296875 22.5 9.414062 22.5 C 7.527344 22.5 6 20.933594 6 19 Z M 6 19 "/>
<path style=" stroke:none;fill-rule:nonzero;fill:rgb(100%,44.705883%,38.431373%);fill-opacity:1;" d="M 12.824219 1.5 L 12.824219 8.5 L 16.238281 8.5 C 18.121094 8.5 19.648438 6.933594 19.648438 5 C 19.648438 3.066406 18.121094 1.5 16.238281 1.5 Z M 12.824219 1.5 "/>
<path style=" stroke:none;fill-rule:nonzero;fill:rgb(94.901961%,30.588236%,11.764706%);fill-opacity:1;" d="M 6 5 C 6 6.933594 7.527344 8.5 9.414062 8.5 L 12.824219 8.5 L 12.824219 1.5 L 9.414062 1.5 C 7.527344 1.5 6 3.066406 6 5 Z M 6 5 "/>
<path style=" stroke:none;fill-rule:nonzero;fill:rgb(63.529414%,34.901962%,100%);fill-opacity:1;" d="M 6 12 C 6 13.933594 7.527344 15.5 9.414062 15.5 L 12.824219 15.5 L 12.824219 8.5 L 9.414062 8.5 C 7.527344 8.5 6 10.066406 6 12 Z M 6 12 "/>
</g>
</svg>
