<?xml version="1.0" encoding="UTF-8"?>
<svg xmlns="http://www.w3.org/2000/svg" xmlns:xlink="http://www.w3.org/1999/xlink" width="24px" height="px" viewBox="0 0 24 24" version="1.1">
<g id="surface1">
<path style=" stroke:none;fill-rule:nonzero;fill:rgb(100%,100%,100%);fill-opacity:1;" d="M 10.984375 13.835938 C 10.851562 13.835938 10.726562 13.785156 10.632812 13.691406 L 9.886719 12.945312 C 9.753906 12.820312 9.703125 12.636719 9.75 12.460938 C 9.792969 12.285156 9.929688 12.148438 10.105469 12.101562 C 10.28125 12.058594 10.464844 12.109375 10.59375 12.238281 L 10.984375 12.628906 L 12.164062 11.449219 C 12.359375 11.253906 12.675781 11.253906 12.871094 11.449219 C 13.066406 11.644531 13.066406 11.960938 12.871094 12.15625 L 11.339844 13.691406 C 11.242188 13.785156 11.117188 13.835938 10.984375 13.835938 Z M 20.335938 13.6875 L 21.871094 12.15625 C 22.058594 11.960938 22.058594 11.648438 21.863281 11.457031 C 21.671875 11.261719 21.359375 11.261719 21.164062 11.449219 L 19.984375 12.628906 L 19.589844 12.238281 C 19.464844 12.109375 19.28125 12.058594 19.105469 12.101562 C 18.929688 12.148438 18.792969 12.285156 18.746094 12.460938 C 18.703125 12.636719 18.753906 12.820312 18.886719 12.945312 L 19.632812 13.691406 C 19.722656 13.785156 19.851562 13.835938 19.984375 13.835938 C 20.117188 13.835938 20.242188 13.785156 20.335938 13.6875 Z M 4.527344 7.453125 L 7.085938 5.867188 C 7.378906 5.683594 7.554688 5.367188 7.558594 5.019531 C 7.558594 4.675781 7.382812 4.355469 7.089844 4.171875 L 4.53125 2.558594 C 4.226562 2.367188 3.835938 2.355469 3.515625 2.53125 C 3.199219 2.707031 3 3.042969 3 3.40625 L 3 6.601562 C 3 6.964844 3.199219 7.296875 3.515625 7.476562 C 3.832031 7.652344 4.21875 7.640625 4.527344 7.453125 Z M 6.558594 5.015625 L 4 6.601562 L 4 3.40625 Z M 24 12.5 C 24 14.429688 22.429688 16 20.5 16 C 18.761719 15.996094 17.289062 14.71875 17.039062 13 L 14.960938 13 C 14.710938 14.71875 13.238281 15.996094 11.5 16 C 9.761719 15.996094 8.289062 14.71875 8.039062 13 L 7.480469 13 C 6.511719 13 5.632812 12.601562 5 11.957031 L 5 17 C 5 18.652344 6.347656 20 8 20 L 8.039062 20 C 8.285156 18.308594 9.738281 17 11.5 17 C 13.429688 17 15 18.570312 15 20.5 C 15 22.429688 13.429688 24 11.5 24 C 9.761719 23.996094 8.289062 22.71875 8.039062 21 L 8 21 C 5.792969 21 4 19.207031 4 17 L 4 9.898438 C 1.671875 9.421875 0.00390625 7.375 0 5 C 0 2.242188 2.242188 0 5 0 C 7.757812 0 10 2.242188 10 5 C 9.996094 7.742188 7.789062 9.96875 5.046875 9.996094 C 5.277344 11.160156 6.296875 12 7.480469 12 L 8.039062 12 C 8.285156 10.308594 9.738281 9 11.5 9 C 13.238281 9.003906 14.710938 10.28125 14.960938 12 L 17.039062 12 C 17.289062 10.28125 18.761719 9.003906 20.5 9 C 22.429688 9 24 10.570312 24 12.5 Z M 9 20.5 C 9 21.878906 10.121094 23 11.5 23 C 12.878906 23 14 21.878906 14 20.5 C 14 19.121094 12.878906 18 11.5 18 C 10.121094 18 9 19.121094 9 20.5 Z M 5 9 C 7.207031 9 9 7.207031 9 5 C 9 2.792969 7.207031 1 5 1 C 2.792969 1 1 2.792969 1 5 C 1 7.207031 2.792969 9 5 9 Z M 14 12.5 C 14 11.121094 12.878906 10 11.5 10 C 10.121094 10 9 11.121094 9 12.5 C 9 13.878906 10.121094 15 11.5 15 C 12.878906 15 14 13.878906 14 12.5 Z M 23 12.5 C 23 11.121094 21.878906 10 20.5 10 C 19.121094 10 18 11.121094 18 12.5 C 18 13.878906 19.121094 15 20.5 15 C 21.878906 15 23 13.878906 23 12.5 Z M 10 20.5 C 10 20.777344 10.222656 21 10.5 21 C 10.777344 21 11 20.777344 11 20.5 C 11 20.222656 10.777344 20 10.5 20 C 10.222656 20 10 20.222656 10 20.5 Z M 12 20.5 C 12 20.777344 12.222656 21 12.5 21 C 12.777344 21 13 20.777344 13 20.5 C 13 20.222656 12.777344 20 12.5 20 C 12.222656 20 12 20.222656 12 20.5 Z M 24 20.5 C 24 22.429688 22.429688 24 20.5 24 C 18.761719 23.996094 17.289062 22.71875 17.039062 20.996094 C 17.03125 21 17.027344 21.003906 17.019531 21.003906 L 16.511719 21.019531 L 16.496094 21.019531 C 16.226562 21.011719 16.011719 20.796875 16.007812 20.527344 C 16.003906 20.261719 16.210938 20.035156 16.480469 20.019531 L 16.984375 20.003906 C 17.003906 20.003906 17.019531 20.011719 17.039062 20.011719 C 17.28125 18.285156 18.757812 17.003906 20.5 17 C 22.429688 17 24 18.570312 24 20.5 Z M 23 20.5 C 23 19.121094 21.878906 18 20.5 18 C 19.121094 18 18 19.121094 18 20.5 C 18 21.878906 19.121094 23 20.5 23 C 21.878906 23 23 21.878906 23 20.5 Z M 23 20.5 "/>
</g>
</svg>
