<?xml version="1.0" encoding="UTF-8"?>
<svg xmlns="http://www.w3.org/2000/svg" xmlns:xlink="http://www.w3.org/1999/xlink" width="24px" height="px" viewBox="0 0 24 24" version="1.1">
<g id="surface1">
<path style=" stroke:none;fill-rule:evenodd;fill:rgb(0%,67.450982%,84.313726%);fill-opacity:1;" d="M 13.589844 10.53125 C 13.304688 10.613281 13.019531 10.691406 12.6875 10.78125 C 12.523438 10.828125 12.488281 10.839844 12.335938 10.65625 C 12.15625 10.441406 12.023438 10.300781 11.769531 10.171875 C 11.011719 9.777344 10.273438 9.894531 9.585938 10.363281 C 8.765625 10.921875 8.34375 11.75 8.355469 12.777344 C 8.367188 13.792969 9.03125 14.632812 9.984375 14.773438 C 10.804688 14.886719 11.492188 14.582031 12.035156 13.933594 C 12.144531 13.792969 12.242188 13.640625 12.363281 13.464844 L 10.035156 13.464844 C 9.78125 13.464844 9.71875 13.296875 9.804688 13.082031 C 9.960938 12.6875 10.25 12.027344 10.417969 11.699219 C 10.457031 11.621094 10.539062 11.496094 10.722656 11.496094 L 14.601562 11.496094 C 14.777344 10.914062 15.058594 10.363281 15.4375 9.84375 C 16.316406 8.621094 17.378906 7.988281 18.816406 7.71875 C 20.046875 7.492188 21.203125 7.617188 22.253906 8.367188 C 23.207031 9.054688 23.796875 9.980469 23.953125 11.203125 C 24.160156 12.917969 23.6875 14.316406 22.566406 15.507812 C 21.769531 16.359375 20.792969 16.894531 19.671875 17.136719 C 19.457031 17.175781 19.242188 17.195312 19.03125 17.214844 C 18.921875 17.226562 18.8125 17.238281 18.707031 17.25 C 17.609375 17.222656 16.605469 16.894531 15.761719 16.132812 C 15.167969 15.589844 14.761719 14.925781 14.558594 14.152344 C 14.414062 14.453125 14.246094 14.742188 14.050781 15.015625 C 13.183594 16.222656 12.046875 16.96875 10.613281 17.175781 C 9.429688 17.339844 8.332031 17.097656 7.367188 16.335938 C 6.476562 15.625 5.96875 14.683594 5.835938 13.515625 C 5.679688 12.128906 6.066406 10.882812 6.859375 9.792969 C 7.71875 8.609375 8.851562 7.859375 10.238281 7.59375 C 11.371094 7.378906 12.457031 7.515625 13.433594 8.214844 C 14.074219 8.660156 14.53125 9.269531 14.835938 10.007812 C 14.90625 10.121094 14.859375 10.183594 14.714844 10.222656 C 14.289062 10.335938 13.941406 10.433594 13.589844 10.53125 Z M 21.570312 11.980469 C 21.570312 12.023438 21.574219 12.066406 21.578125 12.117188 C 21.515625 13.210938 20.996094 14.023438 20.046875 14.542969 C 19.40625 14.886719 18.742188 14.925781 18.078125 14.621094 C 17.210938 14.214844 16.753906 13.210938 16.96875 12.21875 C 17.234375 11.023438 17.957031 10.273438 19.078125 10.007812 C 20.226562 9.726562 21.324219 10.4375 21.539062 11.695312 C 21.558594 11.785156 21.5625 11.878906 21.570312 11.980469 Z M 21.570312 11.980469 "/>
<path style=" stroke:none;fill-rule:nonzero;fill:rgb(0%,67.450982%,84.313726%);fill-opacity:1;" d="M 1.832031 10.390625 C 1.808594 10.425781 1.820312 10.453125 1.871094 10.453125 L 5.460938 10.464844 C 5.5 10.464844 5.558594 10.425781 5.582031 10.390625 L 5.789062 10.058594 C 5.8125 10.019531 5.800781 9.980469 5.75 9.980469 L 2.21875 9.980469 C 2.171875 9.980469 2.109375 10.007812 2.085938 10.046875 Z M 1.832031 10.390625 "/>
<path style=" stroke:none;fill-rule:nonzero;fill:rgb(0%,67.450982%,84.313726%);fill-opacity:1;" d="M 0.0117188 11.558594 C -0.0117188 11.597656 0 11.621094 0.046875 11.621094 L 4.980469 11.609375 C 5.027344 11.609375 5.074219 11.582031 5.089844 11.53125 L 5.183594 11.226562 C 5.195312 11.1875 5.171875 11.152344 5.125 11.152344 L 0.398438 11.152344 C 0.351562 11.152344 0.289062 11.175781 0.265625 11.214844 Z M 0.0117188 11.558594 "/>
<path style=" stroke:none;fill-rule:nonzero;fill:rgb(0%,67.450982%,84.313726%);fill-opacity:1;" d="M 2.929688 12.714844 C 2.90625 12.753906 2.917969 12.789062 2.96875 12.789062 L 4.824219 12.804688 C 4.859375 12.804688 4.90625 12.765625 4.90625 12.714844 L 4.929688 12.410156 C 4.929688 12.359375 4.90625 12.320312 4.859375 12.320312 L 3.21875 12.320312 C 3.171875 12.320312 3.125 12.359375 3.101562 12.394531 Z M 2.929688 12.714844 "/>
</g>
</svg>
