<?xml version="1.0" encoding="UTF-8"?>
<svg xmlns="http://www.w3.org/2000/svg" xmlns:xlink="http://www.w3.org/1999/xlink" width="24px" height="px" viewBox="0 0 24 24" version="1.1">
<defs>
<linearGradient id="linear0" gradientUnits="userSpaceOnUse" x1="7.502" y1="18.142" x2="7.502" y2="5.356" gradientTransform="matrix(1.5,0,0,1.5,0,0)">
<stop offset="0" style="stop-color:rgb(100%,94.901961%,0%);stop-opacity:1;"/>
<stop offset="1" style="stop-color:rgb(94.509804%,35.294118%,16.078431%);stop-opacity:1;"/>
</linearGradient>
</defs>
<g id="surface1">
<path style=" stroke:none;fill-rule:nonzero;fill:url(#linear0);" d="M 20.976562 10.761719 C 20.945312 10.355469 20.875 9.953125 20.769531 9.558594 C 20.476562 8.453125 19.9375 7.429688 19.191406 6.5625 C 19.023438 6.351562 18.839844 6.152344 18.640625 5.972656 C 18.9375 4.792969 18.273438 3.769531 18.273438 3.769531 C 17.128906 3.703125 16.417969 4.113281 16.144531 4.316406 C 16.097656 4.292969 16.050781 4.269531 16.003906 4.269531 C 15.820312 4.203125 15.613281 4.113281 15.410156 4.066406 C 15.203125 3.996094 14.996094 3.953125 14.789062 3.886719 C 14.585938 3.839844 14.355469 3.792969 14.125 3.746094 C 14.082031 3.746094 14.054688 3.746094 14.011719 3.722656 C 13.507812 2.160156 12.085938 1.5 12.085938 1.5 C 10.507812 2.5 10.183594 3.90625 10.183594 3.90625 C 10.183594 3.90625 10.183594 3.929688 10.160156 3.996094 L 9.886719 4.066406 C 9.773438 4.109375 9.632812 4.15625 9.519531 4.179688 C 9.40625 4.222656 9.269531 4.269531 9.152344 4.3125 C 8.921875 4.429688 8.671875 4.542969 8.445312 4.65625 C 8.214844 4.789062 7.984375 4.925781 7.777344 5.0625 C 7.753906 5.042969 7.734375 5.042969 7.734375 5.042969 C 5.535156 4.222656 3.585938 5.246094 3.585938 5.246094 C 3.402344 7.5625 4.453125 9.039062 4.683594 9.308594 C 4.640625 9.445312 4.59375 9.605469 4.546875 9.742188 C 4.386719 10.277344 4.265625 10.824219 4.179688 11.375 C 4.179688 11.464844 4.15625 11.535156 4.15625 11.625 C 2.09375 12.578125 1.5 14.621094 1.5 14.621094 C 3.195312 16.550781 5.191406 16.6875 5.191406 16.6875 C 5.441406 17.140625 5.738281 17.550781 6.058594 17.960938 C 6.199219 18.117188 6.335938 18.277344 6.496094 18.4375 C 6.128906 19.484375 6.160156 20.632812 6.585938 21.660156 C 8.488281 21.726562 9.726562 20.84375 9.976562 20.636719 C 10.160156 20.707031 10.367188 20.753906 10.550781 20.796875 C 11.125 20.957031 11.722656 21.023438 12.316406 21.070312 L 13.050781 21.070312 C 13.941406 22.339844 15.5 22.5 15.5 22.5 C 16.621094 21.34375 16.667969 20.183594 16.667969 19.933594 L 16.667969 19.824219 C 16.898438 19.660156 17.128906 19.480469 17.335938 19.296875 C 17.773438 18.894531 18.164062 18.445312 18.503906 17.960938 C 18.523438 17.914062 18.570312 17.871094 18.59375 17.824219 C 19.855469 17.890625 20.746094 17.050781 20.746094 17.050781 C 20.539062 15.757812 19.785156 15.121094 19.625 14.984375 L 19.601562 14.960938 L 19.578125 14.960938 C 19.578125 14.960938 19.558594 14.960938 19.558594 14.941406 C 19.558594 14.871094 19.578125 14.78125 19.578125 14.714844 C 19.578125 14.578125 19.601562 14.441406 19.601562 14.28125 L 19.601562 13.507812 L 19.578125 13.398438 C 19.558594 13.261719 19.535156 13.101562 19.488281 12.964844 C 19.359375 12.410156 19.144531 11.882812 18.847656 11.398438 C 18.550781 10.925781 18.1875 10.496094 17.769531 10.125 C 17.363281 9.777344 16.90625 9.484375 16.417969 9.265625 C 15.945312 9.050781 15.441406 8.914062 14.929688 8.855469 C 14.675781 8.832031 14.425781 8.8125 14.171875 8.8125 L 13.804688 8.8125 C 13.667969 8.832031 13.550781 8.832031 13.414062 8.855469 C 12.910156 8.945312 12.453125 9.128906 12.019531 9.378906 C 11.605469 9.628906 11.238281 9.921875 10.941406 10.285156 C 10.648438 10.621094 10.414062 11.003906 10.253906 11.421875 C 10.097656 11.8125 10.003906 12.226562 9.976562 12.648438 L 9.976562 13.234375 C 10 13.441406 10.046875 13.644531 10.09375 13.828125 C 10.207031 14.214844 10.367188 14.554688 10.597656 14.824219 C 10.804688 15.121094 11.078125 15.347656 11.351562 15.554688 C 11.628906 15.734375 11.925781 15.871094 12.222656 15.960938 C 12.523438 16.050781 12.796875 16.074219 13.070312 16.074219 L 13.4375 16.074219 C 13.484375 16.074219 13.507812 16.074219 13.53125 16.054688 C 13.550781 16.054688 13.597656 16.03125 13.621094 16.03125 C 13.691406 16.007812 13.734375 16.007812 13.804688 15.984375 L 14.148438 15.847656 C 14.257812 15.800781 14.355469 15.742188 14.445312 15.667969 C 14.46875 15.644531 14.492188 15.621094 14.515625 15.621094 C 14.46875 15.234375 14.355469 15.214844 14.261719 15.28125 C 14.242188 15.304688 14.21875 15.304688 14.195312 15.324219 C 14.125 15.371094 14.035156 15.394531 13.941406 15.414062 L 13.667969 15.484375 C 13.621094 15.484375 13.578125 15.507812 13.53125 15.507812 L 13.09375 15.507812 C 12.632812 15.449219 12.203125 15.25 11.859375 14.941406 C 11.671875 14.777344 11.519531 14.585938 11.398438 14.371094 C 11.277344 14.144531 11.191406 13.898438 11.148438 13.644531 C 11.125 13.511719 11.125 13.398438 11.125 13.261719 L 11.125 13.054688 C 11.125 12.988281 11.148438 12.917969 11.148438 12.851562 C 11.238281 12.304688 11.535156 11.761719 11.972656 11.351562 C 12.085938 11.238281 12.199219 11.148438 12.316406 11.082031 C 12.429688 10.992188 12.566406 10.921875 12.703125 10.855469 C 12.84375 10.785156 12.980469 10.738281 13.140625 10.695312 C 13.289062 10.648438 13.441406 10.625 13.597656 10.625 L 14.082031 10.625 C 14.242188 10.648438 14.425781 10.671875 14.585938 10.695312 C 14.90625 10.761719 15.226562 10.875 15.523438 11.058594 C 16.117188 11.375 16.621094 11.898438 16.945312 12.511719 C 17.105469 12.828125 17.21875 13.144531 17.265625 13.488281 C 17.289062 13.578125 17.289062 13.667969 17.289062 13.738281 L 17.289062 14.28125 C 17.289062 14.371094 17.265625 14.464844 17.265625 14.554688 C 17.265625 14.644531 17.242188 14.734375 17.21875 14.824219 L 17.152344 15.097656 C 17.105469 15.28125 17.035156 15.460938 16.964844 15.644531 C 16.824219 15.996094 16.640625 16.332031 16.417969 16.640625 C 15.726562 17.582031 14.699219 18.214844 13.550781 18.414062 C 13.371094 18.4375 13.164062 18.457031 12.980469 18.480469 L 12.683594 18.480469 C 12.589844 18.480469 12.476562 18.480469 12.382812 18.460938 C 11.972656 18.429688 11.5625 18.355469 11.167969 18.234375 C 10.78125 18.117188 10.40625 17.964844 10.046875 17.777344 C 8.964844 17.203125 8.078125 16.316406 7.503906 15.234375 C 7.324219 14.878906 7.179688 14.507812 7.066406 14.121094 C 6.953125 13.738281 6.90625 13.351562 6.863281 12.964844 L 6.863281 12.375 C 6.863281 12.171875 6.886719 11.988281 6.90625 11.785156 C 6.929688 11.578125 6.976562 11.375 7 11.195312 C 7.042969 10.988281 7.089844 10.808594 7.136719 10.601562 C 7.246094 10.222656 7.382812 9.851562 7.550781 9.492188 C 7.871094 8.785156 8.304688 8.152344 8.832031 7.652344 C 8.96875 7.515625 9.109375 7.402344 9.246094 7.289062 C 9.382812 7.175781 9.519531 7.085938 9.679688 6.972656 C 9.828125 6.875 9.984375 6.785156 10.136719 6.699219 C 10.207031 6.652344 10.300781 6.632812 10.367188 6.585938 C 10.757812 6.425781 10.941406 6.359375 11.101562 6.3125 C 11.148438 6.289062 11.191406 6.289062 11.238281 6.269531 C 11.28125 6.246094 11.328125 6.246094 11.375 6.222656 C 11.46875 6.199219 11.558594 6.175781 11.628906 6.15625 C 11.671875 6.132812 11.71875 6.132812 11.765625 6.132812 C 11.8125 6.132812 11.855469 6.109375 11.902344 6.109375 C 11.949219 6.109375 11.992188 6.085938 12.039062 6.085938 L 12.109375 6.0625 L 12.179688 6.0625 C 12.222656 6.0625 12.269531 6.039062 12.316406 6.039062 C 12.359375 6.039062 12.40625 6.019531 12.476562 6.019531 C 12.519531 6.019531 12.589844 5.996094 12.636719 5.996094 L 13.78125 5.996094 C 14.128906 6.019531 14.445312 6.039062 14.765625 6.109375 C 15.410156 6.222656 16.027344 6.425781 16.578125 6.699219 C 17.128906 6.972656 17.632812 7.289062 18.042969 7.652344 L 18.113281 7.71875 L 18.179688 7.789062 C 18.226562 7.832031 18.273438 7.878906 18.34375 7.925781 L 18.480469 8.0625 L 18.617188 8.195312 C 18.800781 8.378906 18.960938 8.582031 19.121094 8.785156 C 19.417969 9.175781 19.671875 9.558594 19.855469 9.945312 C 19.875 9.96875 19.875 9.988281 19.902344 10.015625 C 19.921875 10.035156 19.921875 10.058594 19.921875 10.082031 L 19.992188 10.214844 L 20.128906 10.488281 C 20.199219 10.671875 20.265625 10.832031 20.3125 10.988281 C 20.402344 11.238281 20.472656 11.464844 20.519531 11.671875 C 20.539062 11.738281 20.609375 11.804688 20.703125 11.785156 C 21 11.285156 21 11.035156 20.976562 10.761719 Z M 20.976562 10.761719 "/>
</g>
</svg>
