<?xml version="1.0" encoding="UTF-8"?>
<svg xmlns="http://www.w3.org/2000/svg" xmlns:xlink="http://www.w3.org/1999/xlink" width="24px" height="px" viewBox="0 0 24 24" version="1.1">
<g id="surface1">
<path style=" stroke:none;fill-rule:nonzero;fill:rgb(94.117647%,83.92157%,71.764708%);fill-opacity:1;" d="M 5.578125 10.660156 C 5.613281 10.628906 5.65625 10.597656 5.699219 10.574219 Z M 5.578125 10.660156 "/>
<path style=" stroke:none;fill-rule:nonzero;fill:rgb(94.117647%,83.92157%,71.764708%);fill-opacity:1;" d="M 7.808594 13.691406 C 7.855469 14.003906 7.988281 16.8125 9.882812 18.378906 C 10.269531 18.4375 10.65625 18.476562 11.046875 18.5 C 11.253906 18.046875 12.027344 18.082031 12.535156 18.199219 C 11.902344 17.875 11.34375 17.421875 10.902344 16.867188 C 10.3125 16.351562 9.921875 15.644531 9.796875 14.875 C 10.808594 16.277344 11.644531 17.5 13.484375 18.117188 C 14.875 18.585938 16.5 17.902344 17.566406 17.152344 C 17.980469 16.796875 18.324219 16.371094 18.589844 15.894531 C 19.804688 13.964844 20.367188 11.699219 20.199219 9.425781 C 20.234375 8.550781 20.105469 7.675781 19.824219 6.84375 C 19.484375 6.160156 18.335938 5.554688 17.664062 6.167969 C 17.652344 6.105469 17.648438 6.046875 17.652344 5.984375 C 17.546875 6.085938 17.480469 6.15625 17.480469 6.15625 C 17.425781 6.042969 17.394531 5.917969 17.390625 5.792969 C 17.410156 5.179688 17.902344 4.6875 18.515625 4.667969 C 18.195312 4.230469 17.820312 3.839844 17.40625 3.496094 C 15.941406 2.996094 14.363281 2.9375 12.871094 3.328125 C 10.757812 3.78125 9.050781 5.324219 8.386719 7.378906 C 8.246094 7.933594 8.148438 8.503906 8.097656 9.074219 C 8.074219 9.738281 8.410156 10.316406 8.433594 11.039062 C 8.253906 11.335938 7.707031 11.371094 7.328125 11.351562 C 7.300781 11.210938 7.265625 11.066406 7.226562 10.925781 C 6.929688 10.757812 6.609375 10.632812 6.277344 10.550781 C 6.878906 10.796875 7.203125 11.453125 7.035156 12.078125 C 6.753906 11.917969 6.6875 11.21875 6.359375 11.195312 C 5.890625 11.167969 5.976562 12.109375 5.976562 12.660156 C 5.648438 12.167969 5.59375 11.539062 5.835938 11 C 5.621094 10.894531 5.503906 11.046875 5.386719 11.164062 C 5.21875 11.9375 4.976562 12.566406 5.433594 13.351562 C 5.695312 13.660156 6.089844 13.824219 6.492188 13.800781 C 6.917969 13.761719 7.023438 13.335938 7.484375 13.339844 C 7.660156 13.367188 7.796875 13.511719 7.808594 13.691406 Z M 12.644531 15.148438 L 12.421875 15.105469 C 12.421875 15.105469 12.183594 14.277344 12.296875 14.125 C 12.359375 14.042969 12.6875 13.921875 13.152344 14.144531 C 13.148438 14.148438 12.601562 14.238281 12.644531 15.148438 Z M 16.925781 16.15625 C 16.089844 16.4375 15.1875 16.433594 14.355469 16.144531 C 13.964844 15.859375 13.636719 15.496094 13.394531 15.074219 C 13.277344 14.925781 12.699219 14.542969 13.382812 14.542969 C 13.921875 15.894531 15.769531 15.738281 17.328125 15.699219 C 17.253906 15.898438 17.113281 16.0625 16.925781 16.15625 Z M 17.148438 14.957031 C 17.113281 14.691406 17.113281 14.421875 17.148438 14.160156 C 17.941406 14.003906 18.691406 13.703125 19.371094 13.269531 C 19.027344 14.21875 18.15625 14.878906 17.148438 14.953125 Z M 19.21875 8.902344 C 19.078125 8.945312 18.191406 9.472656 18.257812 8.808594 C 18.328125 8.410156 18.632812 8.09375 19.027344 8 C 19.023438 7.902344 19.023438 7.800781 19.027344 7.703125 L 19.085938 7.703125 C 19.335938 8.296875 19.632812 8.871094 19.964844 9.417969 C 19.730469 9.972656 18.167969 10.460938 18.191406 9.46875 C 18.53125 9.320312 19.113281 9.4375 19.410156 9.25 C 19.339844 9.058594 19.261719 8.875 19.1875 8.683594 Z M 15.328125 12.464844 C 15.429688 12.160156 15.554688 11.714844 15.773438 11.777344 C 15.988281 11.839844 16.140625 12.03125 16.148438 12.257812 C 15.894531 12.421875 15.65625 12.605469 15.4375 12.8125 C 15.484375 13.035156 15.542969 13.261719 15.828125 13.3125 C 16.660156 13.453125 17.625 12.804688 18.21875 12.578125 C 18.589844 11.953125 18.1875 11.722656 17.855469 11.324219 C 17.171875 10.496094 16.257812 9.480469 16.289062 8.246094 C 16.566406 8.046875 16.589844 8.554688 16.628906 8.644531 C 17.136719 9.605469 17.777344 10.484375 18.535156 11.257812 C 18.699219 11.433594 18.960938 11.605469 18.992188 11.71875 C 19.078125 12.058594 18.769531 12.464844 18.804688 12.6875 C 17.855469 13.4375 16.664062 13.808594 15.457031 13.738281 C 15.105469 13.402344 15.050781 12.863281 15.324219 12.460938 Z M 16.796875 14.203125 C 16.84375 14.464844 16.863281 14.734375 16.851562 15 C 15.496094 15.066406 13.886719 14.730469 13.53125 13.777344 C 14.578125 14.152344 15.6875 14.296875 16.792969 14.203125 Z M 13.601562 7.71875 C 13.777344 8.210938 14.023438 8.671875 14.335938 9.089844 C 14.507812 9.257812 14.839844 9.460938 14.675781 9.921875 C 14.558594 10.101562 14.390625 10.242188 14.191406 10.320312 C 13.601562 10.496094 12.21875 10.359375 12.6875 9.621094 C 13.175781 9.640625 13.835938 9.9375 14.203125 9.582031 C 14.128906 9.46875 14.046875 9.328125 13.960938 9.167969 C 13.585938 9.40625 12.554688 9.417969 12.554688 8.808594 C 12.554688 8.171875 13.558594 8.035156 13.558594 8.035156 L 13.566406 8.050781 C 13.554688 7.9375 13.566406 7.824219 13.601562 7.714844 Z M 11.183594 5.523438 C 12.082031 4.910156 12.535156 5.257812 12.761719 5.664062 C 12.878906 5.710938 12.96875 5.804688 13.007812 5.925781 C 13.046875 6.046875 13.03125 6.175781 12.964844 6.285156 C 11.722656 5.996094 11.105469 6.804688 10.726562 7.644531 C 10.628906 7.820312 10.625 7.695312 10.570312 7.542969 C 10.273438 7.164062 10.179688 6.207031 11.183594 5.523438 Z M 11.183594 5.523438 "/>
<path style=" stroke:none;fill-rule:nonzero;fill:rgb(20%,31.37255%,38.039216%);fill-opacity:1;" d="M 4.710938 21.960938 L 11.277344 21.960938 C 11.246094 21.859375 11.21875 21.757812 11.1875 21.664062 C 11.03125 21.1875 10.910156 20.699219 10.832031 20.203125 C 10.027344 19.855469 9.253906 19.441406 8.515625 18.960938 C 8.453125 18.902344 8.390625 18.839844 8.335938 18.769531 L 4.386719 20.535156 C 4.386719 20.535156 4.527344 21.101562 4.710938 21.960938 Z M 4.710938 21.960938 "/>
<path style=" stroke:none;fill-rule:nonzero;fill:rgb(42.745098%,41.960785%,42.745098%);fill-opacity:1;" d="M 7.074219 5.25 C 7.1875 5.214844 7.304688 5.191406 7.425781 5.183594 C 7.609375 5.210938 7.796875 5.21875 7.984375 5.207031 C 8.355469 5.113281 8.667969 4.28125 8.949219 3.972656 C 9.171875 3.765625 9.410156 3.570312 9.65625 3.390625 C 8.628906 3.742188 7.734375 4.390625 7.074219 5.25 Z M 7.074219 5.25 "/>
<path style=" stroke:none;fill-rule:nonzero;fill:rgb(42.745098%,41.960785%,42.745098%);fill-opacity:1;" d="M 5.382812 9.441406 C 5.863281 9.183594 6.441406 9.191406 6.917969 9.457031 C 7.394531 9.71875 7.703125 10.207031 7.742188 10.75 C 8.261719 10.734375 7.9375 10.101562 7.84375 9.691406 C 7.566406 8.484375 8.207031 7.183594 7.984375 6.042969 C 5.085938 6.476562 5.25 8.703125 5.382812 9.441406 Z M 5.382812 9.441406 "/>
<path style=" stroke:none;fill-rule:nonzero;fill:rgb(86.274511%,85.09804%,84.705883%);fill-opacity:1;" d="M 9.9375 2.886719 C 8.570312 3.273438 6.824219 4.265625 6.261719 5.492188 C 6.539062 5.433594 6.808594 5.351562 7.074219 5.25 C 7.734375 4.390625 8.628906 3.742188 9.65625 3.390625 C 9.699219 3.351562 9.738281 3.308594 9.773438 3.265625 C 9.917969 3.195312 10.132812 3.203125 10.140625 2.984375 C 10.078125 2.917969 10.011719 2.867188 9.9375 2.886719 Z M 9.9375 2.886719 "/>
<path style=" stroke:none;fill-rule:nonzero;fill:rgb(86.274511%,85.09804%,84.705883%);fill-opacity:1;" d="M 5.625 6.738281 C 5.023438 7.402344 5.148438 8.644531 5.222656 9.53125 C 5.273438 9.496094 5.328125 9.464844 5.386719 9.441406 C 5.25 8.707031 5.089844 6.476562 7.988281 6.042969 C 7.964844 5.917969 7.929688 5.792969 7.882812 5.675781 C 7.019531 5.722656 6.210938 6.101562 5.625 6.738281 Z M 5.625 6.738281 "/>
<path style=" stroke:none;fill-rule:nonzero;fill:rgb(96.862745%,89.411765%,80.392158%);fill-opacity:1;" d="M 7.808594 13.691406 C 7.796875 13.515625 7.667969 13.371094 7.492188 13.339844 C 7.746094 13.839844 7.105469 13.996094 7.042969 14.355469 C 7.050781 14.566406 7.082031 14.773438 7.136719 14.980469 C 7.359375 15.875 7.726562 16.726562 8.222656 17.503906 C 8.632812 18.011719 9.234375 18.324219 9.886719 18.378906 C 7.988281 16.8125 7.855469 14.003906 7.808594 13.691406 Z M 7.808594 13.691406 "/>
<path style=" stroke:none;fill-rule:nonzero;fill:rgb(96.862745%,89.411765%,80.392158%);fill-opacity:1;" d="M 16.144531 12.253906 C 16.136719 12.027344 15.984375 11.835938 15.769531 11.773438 C 15.550781 11.714844 15.425781 12.15625 15.359375 12.535156 C 15.390625 12.625 15.414062 12.714844 15.433594 12.808594 C 15.652344 12.601562 15.890625 12.417969 16.144531 12.253906 Z M 16.144531 12.253906 "/>
<path style=" stroke:none;fill-rule:nonzero;fill:rgb(96.862745%,89.411765%,80.392158%);fill-opacity:1;" d="M 18.257812 8.808594 C 18.1875 9.472656 19.082031 8.945312 19.214844 8.898438 L 19.183594 8.683594 C 19.097656 8.464844 19.046875 8.234375 19.027344 8 C 18.632812 8.089844 18.328125 8.410156 18.257812 8.808594 Z M 18.257812 8.808594 "/>
<path style=" stroke:none;fill-rule:nonzero;fill:rgb(96.862745%,89.411765%,80.392158%);fill-opacity:1;" d="M 12.554688 8.808594 C 12.554688 9.414062 13.582031 9.402344 13.960938 9.167969 C 13.757812 8.824219 13.621094 8.445312 13.566406 8.050781 L 13.558594 8.03125 C 13.558594 8.03125 12.554688 8.167969 12.554688 8.808594 Z M 12.554688 8.808594 "/>
<path style=" stroke:none;fill-rule:nonzero;fill:rgb(96.862745%,89.411765%,80.392158%);fill-opacity:1;" d="M 5.394531 11.164062 C 5.367188 11.195312 5.335938 11.222656 5.300781 11.246094 C 5.316406 11.023438 5.417969 10.816406 5.578125 10.660156 C 5.882812 10.484375 6.097656 10.476562 6.285156 10.550781 C 6.617188 10.632812 6.9375 10.757812 7.234375 10.925781 C 7.089844 10.429688 6.84375 9.980469 6.328125 9.921875 C 5.914062 9.886719 5.5 10.027344 5.1875 10.304688 C 4.875 10.582031 4.691406 10.976562 4.679688 11.394531 C 4.679688 12.117188 4.949219 12.816406 5.441406 13.351562 C 4.984375 12.570312 5.226562 11.941406 5.394531 11.164062 Z M 5.394531 11.164062 "/>
<path style=" stroke:none;fill-rule:nonzero;fill:rgb(96.862745%,89.411765%,80.392158%);fill-opacity:1;" d="M 12.875 3.332031 C 14.367188 2.941406 15.945312 3 17.410156 3.5 C 17.292969 3.40625 17.167969 3.324219 17.042969 3.253906 C 15.625 2.453125 13.226562 1.851562 11.714844 2.601562 C 10.5 3.207031 8.855469 4.210938 8.296875 5.484375 C 8.527344 6.089844 8.558594 6.753906 8.390625 7.382812 C 9.054688 5.328125 10.761719 3.785156 12.875 3.332031 Z M 12.875 3.332031 "/>
<path style=" stroke:none;fill-rule:nonzero;fill:rgb(96.862745%,89.411765%,80.392158%);fill-opacity:1;" d="M 17.390625 5.796875 C 17.394531 5.921875 17.425781 6.046875 17.484375 6.160156 C 17.484375 6.160156 17.546875 6.085938 17.65625 5.988281 C 17.679688 5.4375 18.304688 5.125 19.027344 5.335938 C 18.863281 5.125 18.695312 4.894531 18.519531 4.671875 C 17.90625 4.691406 17.410156 5.183594 17.390625 5.796875 Z M 17.390625 5.796875 "/>
<path style=" stroke:none;fill-rule:nonzero;fill:rgb(96.862745%,89.411765%,80.392158%);fill-opacity:1;" d="M 10.570312 7.542969 C 10.625 7.695312 10.628906 7.820312 10.726562 7.644531 Z M 10.570312 7.542969 "/>
<path style=" stroke:none;fill-rule:nonzero;fill:rgb(96.862745%,89.411765%,80.392158%);fill-opacity:1;" d="M 10.523438 7.441406 C 10.503906 7.246094 10.53125 7.050781 10.609375 6.871094 C 10.917969 6.109375 11.640625 5.597656 12.460938 5.558594 C 12.566406 5.574219 12.667969 5.609375 12.761719 5.664062 C 12.535156 5.261719 12.085938 4.914062 11.1875 5.523438 C 10.183594 6.207031 10.273438 7.164062 10.457031 7.347656 Z M 10.523438 7.441406 "/>
<path style=" stroke:none;fill-rule:nonzero;fill:rgb(28.627452%,44.705883%,54.509807%);fill-opacity:1;" d="M 4.386719 20.535156 L 8.335938 18.769531 C 8.046875 18.433594 7.527344 17.792969 7.4375 17.828125 C 5.921875 18.5 4.503906 19.378906 3.230469 20.441406 C 3.457031 20.9375 3.660156 21.441406 3.835938 21.960938 L 4.710938 21.960938 C 4.527344 21.101562 4.386719 20.535156 4.386719 20.535156 Z M 4.386719 20.535156 "/>
<path style=" stroke:none;fill-rule:nonzero;fill:rgb(20%,31.37255%,38.039216%);fill-opacity:1;" d="M 20.25 21.980469 C 20.414062 21.472656 20.550781 20.957031 20.660156 20.4375 C 20.6875 20.300781 20.742188 20.082031 20.777344 19.871094 L 18.613281 18.261719 C 19.03125 19.1875 19.066406 20.238281 18.710938 21.1875 C 18.785156 21.464844 19.050781 21.574219 19.160156 21.824219 C 19.136719 21.871094 19.109375 21.914062 19.085938 21.957031 L 20.191406 21.957031 Z M 20.25 21.980469 "/>
<path style=" stroke:none;fill-rule:nonzero;fill:rgb(20%,31.37255%,38.039216%);fill-opacity:1;" d="M 18.332031 21.054688 C 18.390625 20.96875 18.4375 20.871094 18.460938 20.769531 C 18.4375 20.871094 18.390625 20.96875 18.332031 21.054688 Z M 18.332031 21.054688 "/>
<path style=" stroke:none;fill-rule:nonzero;fill:rgb(20%,31.37255%,38.039216%);fill-opacity:1;" d="M 17.710938 17.960938 C 17.832031 17.898438 17.964844 17.871094 18.097656 17.878906 L 17.917969 17.746094 C 17.839844 17.808594 17.773438 17.878906 17.710938 17.960938 Z M 17.710938 17.960938 "/>
<path style=" stroke:none;fill-rule:nonzero;fill:rgb(28.627452%,44.705883%,54.509807%);fill-opacity:1;" d="M 20.816406 19.410156 C 20.761719 19.007812 20.21875 18.707031 19.9375 18.460938 C 19.425781 18 19.105469 17.59375 18.570312 17.164062 C 18.378906 17.386719 18.160156 17.582031 17.917969 17.746094 L 18.097656 17.878906 C 18.320312 17.917969 18.511719 18.058594 18.613281 18.261719 L 20.773438 19.871094 C 20.808594 19.71875 20.824219 19.5625 20.816406 19.410156 Z M 20.816406 19.410156 "/>
<path style=" stroke:none;fill-rule:nonzero;fill:rgb(100%,100%,100%);fill-opacity:1;" d="M 15.429688 21.898438 L 15.796875 21.957031 C 15.796875 21.820312 15.90625 21.707031 16.042969 21.707031 C 16.183594 21.707031 16.292969 21.820312 16.292969 21.957031 L 16.875 21.957031 L 16.875 21.933594 C 16.667969 21.828125 16.21875 21.59375 15.976562 21.488281 C 15.65625 21.355469 15.429688 21.898438 15.429688 21.898438 Z M 15.429688 21.898438 "/>
<path style=" stroke:none;fill-rule:nonzero;fill:rgb(86.274511%,85.09804%,84.705883%);fill-opacity:1;" d="M 15.429688 21.898438 C 15.429688 21.898438 15.652344 21.351562 15.976562 21.488281 C 16.21875 21.59375 16.667969 21.824219 16.875 21.933594 C 16.882812 21.769531 16.890625 21.605469 16.902344 21.4375 C 16.4375 21.46875 16.179688 21.019531 15.855469 20.984375 C 15.574219 20.953125 15.332031 21.3125 14.964844 21.15625 C 14.878906 21.25 14.804688 21.351562 14.714844 21.441406 C 14.851562 21.605469 14.972656 21.777344 15.082031 21.957031 L 15.441406 21.957031 Z M 15.429688 21.898438 "/>
<path style=" stroke:none;fill-rule:nonzero;fill:rgb(100%,100%,100%);fill-opacity:1;" d="M 10.882812 18.875 C 10.304688 18.875 9.726562 18.773438 9.179688 18.578125 C 9.707031 19.113281 10.246094 19.261719 10.800781 19.324219 C 10.851562 19.183594 10.882812 19.03125 10.882812 18.875 Z M 10.882812 18.875 "/>
<path style=" stroke:none;fill-rule:nonzero;fill:rgb(86.274511%,85.09804%,84.705883%);fill-opacity:1;" d="M 10.769531 19.550781 C 10.769531 19.476562 10.777344 19.398438 10.796875 19.328125 C 10.246094 19.261719 9.703125 19.113281 9.195312 18.894531 C 9.648438 19.253906 10.191406 19.480469 10.769531 19.550781 Z M 10.769531 19.550781 "/>
<path style=" stroke:none;fill-rule:nonzero;fill:rgb(82.745099%,21.960784%,20%);fill-opacity:1;" d="M 18.460938 20.769531 C 18.511719 20.554688 18.527344 20.335938 18.515625 20.117188 C 18.5 19.769531 18.449219 19.421875 18.363281 19.082031 C 18.113281 19.054688 17.855469 19.066406 17.609375 19.121094 C 17.382812 19.167969 17.152344 19.210938 17.105469 19.484375 C 17.0625 19.757812 17.199219 19.898438 17.058594 20.125 C 16.921875 20.351562 16.695312 20.214844 16.46875 20.351562 C 16.3125 20.441406 16.410156 20.683594 16.488281 20.828125 C 17.09375 20.964844 17.710938 21.042969 18.332031 21.054688 C 18.394531 20.96875 18.4375 20.871094 18.460938 20.769531 Z M 18.460938 20.769531 "/>
<path style=" stroke:none;fill-rule:nonzero;fill:rgb(82.745099%,21.960784%,20%);fill-opacity:1;" d="M 11.671875 21.914062 C 11.683594 21.945312 11.695312 21.980469 11.707031 22.011719 C 11.71875 22.039062 11.726562 22.078125 11.738281 22.113281 L 11.730469 22.027344 Z M 11.671875 21.914062 "/>
<path style=" stroke:none;fill-rule:nonzero;fill:rgb(82.745099%,21.960784%,20%);fill-opacity:1;" d="M 14.671875 20.945312 C 14.675781 20.8125 14.683594 20.679688 14.6875 20.546875 C 14.449219 20.621094 14.191406 20.601562 13.96875 20.492188 C 13.265625 20.109375 13.929688 20.222656 13.679688 19.714844 C 13.398438 19.5625 13.085938 19.46875 12.761719 19.441406 C 11.84375 19.441406 11.488281 19.253906 11.585938 20.316406 C 11.640625 20.886719 11.6875 21.457031 11.730469 22.027344 C 11.804688 22.167969 11.875 22.296875 11.925781 22.402344 C 12.410156 22.355469 12.875 22.214844 13.300781 21.984375 C 13.777344 21.660156 14.234375 21.316406 14.671875 20.945312 Z M 14.671875 20.945312 "/>
<path style=" stroke:none;fill-rule:nonzero;fill:rgb(82.745099%,21.960784%,20%);fill-opacity:1;" d="M 15.019531 20.398438 C 15.035156 20.464844 15.050781 20.542969 15.066406 20.632812 C 15.253906 20.730469 15.480469 20.710938 15.644531 20.582031 C 15.808594 20.449219 15.878906 20.234375 15.824219 20.03125 C 15.769531 19.828125 15.597656 19.679688 15.390625 19.648438 C 15.441406 19.953125 15.292969 20.253906 15.019531 20.398438 Z M 15.019531 20.398438 "/>
<path style=" stroke:none;fill-rule:nonzero;fill:rgb(93.725491%,23.921569%,22.745098%);fill-opacity:1;" d="M 16.464844 20.351562 C 16.691406 20.214844 16.921875 20.351562 17.058594 20.128906 C 17.195312 19.902344 17.058594 19.761719 17.105469 19.488281 C 17.148438 19.214844 17.378906 19.167969 17.605469 19.125 C 17.855469 19.070312 18.109375 19.054688 18.363281 19.085938 C 18.332031 18.898438 18.242188 18.726562 18.101562 18.597656 C 17.539062 18.269531 16.558594 19.214844 16.101562 19.417969 L 16.058594 19.433594 C 16.128906 19.566406 16.171875 19.707031 16.191406 19.851562 C 16.292969 19.828125 16.394531 19.816406 16.5 19.820312 C 16.570312 19.824219 16.640625 19.832031 16.707031 19.847656 C 16.742188 19.851562 16.773438 19.863281 16.808594 19.871094 C 16.871094 19.886719 16.929688 19.910156 16.988281 19.941406 C 16.796875 19.945312 16.609375 19.972656 16.421875 20.015625 C 16.367188 20.03125 16.316406 20.054688 16.269531 20.085938 C 16.25 20.308594 16.242188 20.535156 16.246094 20.761719 C 16.324219 20.785156 16.40625 20.804688 16.488281 20.824219 C 16.40625 20.6875 16.308594 20.445312 16.464844 20.351562 Z M 16.464844 20.351562 "/>
<path style=" stroke:none;fill-rule:nonzero;fill:rgb(93.725491%,23.921569%,22.745098%);fill-opacity:1;" d="M 11.738281 22.113281 C 11.777344 22.25 11.808594 22.375 11.929688 22.402344 C 11.875 22.292969 11.804688 22.167969 11.730469 22.027344 Z M 11.738281 22.113281 "/>
<path style=" stroke:none;fill-rule:nonzero;fill:rgb(93.725491%,23.921569%,22.745098%);fill-opacity:1;" d="M 11.585938 20.316406 C 11.492188 19.253906 11.84375 19.441406 12.761719 19.441406 C 13.085938 19.46875 13.398438 19.5625 13.679688 19.714844 C 13.929688 20.222656 13.265625 20.109375 13.96875 20.492188 C 14.191406 20.601562 14.449219 20.621094 14.6875 20.546875 L 14.6875 20.5 C 14.472656 20.390625 14.238281 20.320312 14 20.28125 C 13.910156 20.269531 13.816406 20.261719 13.722656 20.257812 C 13.792969 20.222656 13.867188 20.195312 13.941406 20.175781 C 14.175781 20.140625 14.40625 20.070312 14.621094 19.964844 C 14.621094 19.90625 14.625 19.847656 14.628906 19.789062 C 14.578125 19.785156 14.527344 19.777344 14.476562 19.769531 C 14.433594 19.761719 14.386719 19.75 14.34375 19.734375 C 14.269531 19.710938 14.195312 19.679688 14.125 19.640625 C 13.992188 19.566406 13.875 19.476562 13.730469 19.398438 C 13.164062 19.09375 12.554688 18.871094 11.925781 18.738281 C 11.234375 18.605469 11.226562 19.566406 11.257812 20.273438 C 11.257812 20.351562 11.261719 20.417969 11.265625 20.484375 C 11.328125 20.976562 11.46875 21.457031 11.675781 21.910156 L 11.734375 22.023438 C 11.6875 21.457031 11.640625 20.886719 11.585938 20.316406 Z M 11.585938 20.316406 "/>
<path style=" stroke:none;fill-rule:nonzero;fill:rgb(93.725491%,23.921569%,22.745098%);fill-opacity:1;" d="M 15.390625 19.648438 C 15.234375 19.652344 15.078125 19.707031 14.953125 19.800781 C 14.941406 19.902344 14.945312 20.007812 14.957031 20.109375 C 14.96875 20.167969 14.980469 20.226562 14.996094 20.289062 L 15.019531 20.386719 L 15.019531 20.398438 C 15.289062 20.253906 15.441406 19.953125 15.390625 19.648438 Z M 15.390625 19.648438 "/>
<path style=" stroke:none;fill-rule:nonzero;fill:rgb(13.725491%,12.156863%,12.54902%);fill-opacity:1;" d="M 10.609375 6.871094 C 10.53125 7.050781 10.503906 7.246094 10.523438 7.441406 C 11.101562 6.804688 11.722656 5.996094 12.964844 6.285156 C 13.03125 6.175781 13.046875 6.046875 13.007812 5.925781 C 12.96875 5.804688 12.878906 5.710938 12.761719 5.664062 C 12.667969 5.609375 12.566406 5.574219 12.460938 5.558594 C 11.640625 5.597656 10.917969 6.113281 10.609375 6.871094 Z M 10.609375 6.871094 "/>
<path style=" stroke:none;fill-rule:nonzero;fill:rgb(13.725491%,12.156863%,12.54902%);fill-opacity:1;" d="M 18.1875 9.46875 C 18.164062 10.464844 19.726562 9.972656 19.964844 9.421875 C 19.628906 8.871094 19.335938 8.296875 19.085938 7.703125 L 19.023438 7.703125 C 19.019531 7.804688 19.019531 7.902344 19.023438 8.003906 C 19.042969 8.238281 19.097656 8.46875 19.183594 8.6875 C 19.253906 8.878906 19.335938 9.0625 19.40625 9.253906 C 19.109375 9.441406 18.523438 9.324219 18.1875 9.46875 Z M 18.1875 9.46875 "/>
<path style=" stroke:none;fill-rule:nonzero;fill:rgb(13.725491%,12.156863%,12.54902%);fill-opacity:1;" d="M 14.199219 9.578125 C 13.835938 9.933594 13.175781 9.640625 12.683594 9.617188 C 12.21875 10.355469 13.597656 10.496094 14.191406 10.320312 C 14.390625 10.238281 14.558594 10.097656 14.671875 9.917969 C 14.835938 9.457031 14.503906 9.253906 14.335938 9.085938 C 14.023438 8.667969 13.777344 8.207031 13.601562 7.714844 C 13.566406 7.824219 13.554688 7.9375 13.566406 8.050781 C 13.621094 8.445312 13.753906 8.824219 13.960938 9.167969 C 14.042969 9.324219 14.128906 9.464844 14.199219 9.578125 Z M 14.199219 9.578125 "/>
<path style=" stroke:none;fill-rule:nonzero;fill:rgb(13.725491%,12.156863%,12.54902%);fill-opacity:1;" d="M 15.453125 13.734375 C 16.660156 13.808594 17.851562 13.433594 18.804688 12.6875 C 18.769531 12.460938 19.074219 12.054688 18.988281 11.71875 C 18.960938 11.601562 18.695312 11.433594 18.535156 11.257812 C 17.777344 10.484375 17.132812 9.601562 16.625 8.644531 C 16.585938 8.550781 16.5625 8.042969 16.289062 8.246094 C 16.253906 9.476562 17.167969 10.496094 17.851562 11.320312 C 18.183594 11.722656 18.585938 11.953125 18.21875 12.574219 C 17.617188 12.800781 16.65625 13.453125 15.824219 13.308594 C 15.542969 13.261719 15.480469 13.035156 15.433594 12.808594 C 15.414062 12.714844 15.390625 12.625 15.359375 12.535156 C 15.050781 12.863281 15.105469 13.398438 15.453125 13.734375 Z M 15.453125 13.734375 "/>
<path style=" stroke:none;fill-rule:nonzero;fill:rgb(13.725491%,12.156863%,12.54902%);fill-opacity:1;" d="M 5.699219 10.574219 C 5.65625 10.597656 5.617188 10.625 5.582031 10.660156 C 5.421875 10.8125 5.320312 11.019531 5.304688 11.242188 C 5.335938 11.21875 5.367188 11.191406 5.398438 11.164062 C 5.511719 11.046875 5.632812 10.894531 5.847656 11 C 5.605469 11.539062 5.660156 12.167969 5.988281 12.660156 C 5.988281 12.109375 5.902344 11.167969 6.371094 11.195312 C 6.699219 11.21875 6.765625 11.917969 7.046875 12.078125 C 7.214844 11.449219 6.886719 10.796875 6.285156 10.550781 C 6.09375 10.480469 5.882812 10.488281 5.699219 10.574219 Z M 5.699219 10.574219 "/>
<path style=" stroke:none;fill-rule:nonzero;fill:rgb(13.725491%,12.156863%,12.54902%);fill-opacity:1;" d="M 17.152344 14.15625 C 17.117188 14.421875 17.117188 14.6875 17.152344 14.953125 C 18.160156 14.878906 19.027344 14.21875 19.371094 13.265625 C 18.695312 13.699219 17.941406 14.003906 17.152344 14.15625 Z M 17.152344 14.15625 "/>
<path style=" stroke:none;fill-rule:nonzero;fill:rgb(13.725491%,12.156863%,12.54902%);fill-opacity:1;" d="M 16.851562 15 C 16.863281 14.730469 16.84375 14.464844 16.792969 14.199219 C 15.691406 14.296875 14.578125 14.152344 13.53125 13.777344 C 13.886719 14.734375 15.496094 15.070312 16.851562 15 Z M 16.851562 15 "/>
<path style=" stroke:none;fill-rule:nonzero;fill:rgb(13.725491%,12.156863%,12.54902%);fill-opacity:1;" d="M 13.382812 14.542969 C 12.699219 14.542969 13.277344 14.925781 13.394531 15.074219 C 13.636719 15.492188 13.964844 15.859375 14.355469 16.144531 C 15.1875 16.433594 16.09375 16.4375 16.925781 16.15625 C 17.113281 16.058594 17.257812 15.894531 17.328125 15.699219 C 15.769531 15.738281 13.921875 15.890625 13.382812 14.542969 Z M 13.382812 14.542969 "/>
<path style=" stroke:none;fill-rule:nonzero;fill:rgb(50.588238%,69.01961%,76.862746%);fill-opacity:1;" d="M 18.71875 21.960938 C 18.542969 21.675781 18.261719 21.472656 17.9375 21.394531 C 17.707031 21.347656 17.464844 21.378906 17.25 21.484375 C 17.242188 21.636719 17.238281 21.796875 17.226562 21.960938 Z M 18.71875 21.960938 "/>
<path style=" stroke:none;fill-rule:nonzero;fill:rgb(94.117647%,83.92157%,71.764708%);fill-opacity:1;" d="M 16.476562 18.5625 C 15.964844 18.609375 15.359375 18.839844 14.789062 18.875 C 14.738281 18.875 14.6875 18.878906 14.632812 18.878906 C 14.582031 18.878906 14.53125 18.878906 14.484375 18.871094 C 14.386719 18.863281 14.285156 18.84375 14.191406 18.816406 C 14.144531 18.800781 14.09375 18.785156 14.050781 18.761719 C 14.050781 18.800781 13.996094 18.789062 13.988281 18.820312 C 14.050781 18.871094 14.113281 18.914062 14.171875 18.953125 C 14.234375 18.996094 14.292969 19.03125 14.351562 19.0625 C 14.464844 19.125 14.585938 19.171875 14.707031 19.203125 C 14.910156 19.253906 15.113281 19.277344 15.320312 19.273438 C 15.394531 19.273438 15.480469 19.273438 15.566406 19.265625 C 15.875 19.039062 16.152344 18.773438 16.476562 18.5625 Z M 16.476562 18.5625 "/>
<path style=" stroke:none;fill-rule:nonzero;fill:rgb(50.588238%,69.01961%,76.862746%);fill-opacity:1;" d="M 14.316406 21.785156 L 14.050781 21.960938 L 14.445312 21.960938 C 14.402344 21.902344 14.359375 21.84375 14.316406 21.785156 Z M 14.316406 21.785156 "/>
<path style=" stroke:none;fill-rule:nonzero;fill:rgb(13.725491%,12.156863%,12.54902%);fill-opacity:1;" d="M 3.511719 22.328125 L 3.511719 22.074219 L 3.835938 21.960938 C 3.664062 21.445312 3.460938 20.9375 3.230469 20.441406 C 4.507812 19.382812 5.921875 18.5 7.4375 17.828125 C 7.527344 17.792969 8.046875 18.433594 8.335938 18.769531 C 8.394531 18.839844 8.453125 18.902344 8.519531 18.964844 C 9.253906 19.441406 10.027344 19.855469 10.832031 20.203125 C 10.910156 20.699219 11.03125 21.1875 11.191406 21.664062 C 11.21875 21.757812 11.25 21.859375 11.277344 21.960938 L 11.398438 21.960938 L 11.515625 22.195312 L 11.617188 22.195312 L 11.734375 22.5 L 13.003906 22.5 L 13.003906 22.308594 L 13.703125 22.195312 L 13.703125 22.074219 L 14.054688 21.960938 L 14.316406 21.785156 C 14.363281 21.84375 14.40625 21.902344 14.449219 21.960938 L 15.082031 21.960938 C 14.972656 21.78125 14.847656 21.609375 14.714844 21.445312 C 14.800781 21.355469 14.878906 21.253906 14.960938 21.160156 C 15.332031 21.316406 15.570312 20.957031 15.855469 20.988281 C 16.179688 21.023438 16.4375 21.472656 16.902344 21.441406 C 16.890625 21.609375 16.882812 21.773438 16.875 21.9375 L 16.875 21.960938 L 17.230469 21.960938 C 17.238281 21.796875 17.246094 21.640625 17.253906 21.488281 C 17.46875 21.382812 17.710938 21.351562 17.941406 21.398438 C 18.265625 21.476562 18.546875 21.679688 18.722656 21.960938 L 19.085938 21.960938 C 19.109375 21.917969 19.136719 21.871094 19.160156 21.828125 C 19.050781 21.574219 18.789062 21.46875 18.710938 21.191406 C 19.0625 20.238281 19.027344 19.1875 18.613281 18.265625 C 18.511719 18.0625 18.320312 17.917969 18.097656 17.882812 C 17.964844 17.871094 17.832031 17.898438 17.710938 17.960938 C 17.769531 17.882812 17.839844 17.8125 17.917969 17.75 C 18.160156 17.585938 18.378906 17.390625 18.570312 17.167969 C 19.105469 17.597656 19.425781 18 19.9375 18.460938 C 20.214844 18.710938 20.761719 19.007812 20.816406 19.410156 C 20.824219 19.566406 20.808594 19.71875 20.777344 19.871094 C 20.738281 20.082031 20.6875 20.300781 20.660156 20.4375 C 20.550781 20.957031 20.414062 21.472656 20.25 21.980469 L 20.304688 22.5 L 20.578125 22.5 C 20.773438 21.894531 20.964844 21.273438 21.15625 20.632812 C 21.371094 20.113281 21.492188 19.558594 21.511719 18.992188 C 21.453125 18.53125 20.734375 18.042969 20.351562 17.675781 C 20.140625 17.472656 19.15625 16.726562 19.101562 16.449219 C 19.042969 16.167969 19.503906 15.5625 19.648438 15.257812 C 19.839844 14.824219 19.996094 14.375 20.113281 13.917969 C 20.890625 11.195312 20.96875 7.457031 19.859375 5.222656 C 19.25 4.230469 18.464844 3.359375 17.535156 2.652344 C 15.8125 1.34375 12.613281 1.199219 10.53125 1.96875 C 9.960938 2.152344 9.410156 2.386719 8.882812 2.671875 C 7.519531 3.472656 6.070312 4.007812 5.667969 5.617188 C 4.671875 6.066406 4.371094 7.34375 4.417969 8.820312 C 4.488281 9.121094 4.523438 9.429688 4.53125 9.738281 C 4.503906 9.875 4.316406 10.054688 4.28125 10.140625 C 3.894531 11.300781 4.0625 12.570312 4.734375 13.585938 C 5.109375 14.140625 5.691406 14.515625 6.351562 14.625 C 6.382812 15.058594 6.496094 15.484375 6.6875 15.878906 C 6.8125 16.160156 7.289062 16.660156 7.113281 17.019531 C 6.773438 17.304688 6.394531 17.550781 5.992188 17.742188 C 5.125 18.265625 4.492188 18.582031 3.695312 19.160156 C 3.175781 19.535156 2.363281 19.582031 2.492188 20.441406 C 2.648438 21.085938 2.851562 21.714844 3.101562 22.328125 C 3.117188 22.386719 3.140625 22.445312 3.160156 22.5 L 3.511719 22.5 Z M 9.773438 3.265625 C 9.738281 3.308594 9.699219 3.351562 9.65625 3.390625 C 9.410156 3.570312 9.171875 3.765625 8.949219 3.972656 C 8.667969 4.28125 8.355469 5.113281 7.984375 5.207031 C 7.796875 5.21875 7.609375 5.210938 7.425781 5.183594 C 7.304688 5.191406 7.1875 5.214844 7.074219 5.25 C 6.808594 5.351562 6.539062 5.433594 6.261719 5.492188 C 6.824219 4.265625 8.570312 3.277344 9.9375 2.890625 C 10.011719 2.867188 10.078125 2.917969 10.140625 2.984375 C 10.132812 3.199219 9.917969 3.195312 9.773438 3.265625 Z M 7.984375 6.042969 C 8.210938 7.183594 7.566406 8.480469 7.839844 9.6875 C 7.933594 10.097656 8.261719 10.734375 7.742188 10.746094 C 7.703125 10.203125 7.390625 9.71875 6.917969 9.453125 C 6.441406 9.1875 5.863281 9.183594 5.382812 9.4375 C 5.324219 9.464844 5.269531 9.492188 5.21875 9.527344 C 5.144531 8.640625 5.019531 7.398438 5.621094 6.734375 C 6.207031 6.101562 7.015625 5.71875 7.878906 5.671875 C 7.925781 5.792969 7.960938 5.917969 7.984375 6.042969 Z M 5.441406 13.351562 C 4.949219 12.820312 4.675781 12.121094 4.675781 11.398438 C 4.6875 10.980469 4.871094 10.589844 5.183594 10.308594 C 5.496094 10.03125 5.90625 9.894531 6.324219 9.929688 C 6.835938 9.984375 7.085938 10.433594 7.230469 10.929688 C 7.269531 11.070312 7.304688 11.214844 7.332031 11.355469 C 7.710938 11.375 8.257812 11.339844 8.4375 11.042969 C 8.410156 10.320312 8.078125 9.742188 8.101562 9.082031 C 8.152344 8.507812 8.246094 7.941406 8.390625 7.382812 C 8.5625 6.757812 8.527344 6.09375 8.296875 5.484375 C 8.859375 4.214844 10.503906 3.210938 11.71875 2.605469 C 13.226562 1.855469 15.625 2.453125 17.042969 3.253906 C 17.171875 3.328125 17.292969 3.410156 17.410156 3.5 C 17.828125 3.84375 18.199219 4.238281 18.519531 4.671875 C 18.695312 4.898438 18.863281 5.121094 19.03125 5.339844 C 18.304688 5.125 17.679688 5.4375 17.65625 5.988281 C 17.652344 6.050781 17.65625 6.113281 17.667969 6.171875 C 18.34375 5.558594 19.488281 6.167969 19.828125 6.847656 C 20.109375 7.679688 20.238281 8.554688 20.203125 9.433594 C 20.371094 11.703125 19.808594 13.96875 18.59375 15.898438 C 18.328125 16.375 17.984375 16.800781 17.570312 17.160156 C 16.503906 17.910156 14.878906 18.589844 13.488281 18.121094 C 11.648438 17.503906 10.8125 16.28125 9.800781 14.878906 C 9.925781 15.652344 10.316406 16.355469 10.90625 16.871094 C 11.347656 17.425781 11.90625 17.882812 12.539062 18.203125 C 12.035156 18.085938 11.261719 18.046875 11.050781 18.503906 C 10.660156 18.484375 10.273438 18.441406 9.886719 18.382812 C 9.238281 18.332031 8.636719 18.015625 8.222656 17.507812 C 7.726562 16.730469 7.363281 15.878906 7.140625 14.984375 C 7.085938 14.78125 7.054688 14.570312 7.046875 14.359375 C 7.113281 14 7.75 13.84375 7.496094 13.34375 C 7.03125 13.339844 6.929688 13.765625 6.503906 13.808594 C 6.097656 13.828125 5.703125 13.660156 5.441406 13.351562 Z M 15.019531 20.386719 L 14.996094 20.285156 C 14.980469 20.222656 14.96875 20.167969 14.957031 20.109375 C 14.945312 20.003906 14.941406 19.902344 14.953125 19.800781 C 15.078125 19.703125 15.234375 19.652344 15.390625 19.648438 C 15.597656 19.679688 15.769531 19.828125 15.824219 20.03125 C 15.878906 20.234375 15.808594 20.449219 15.644531 20.578125 C 15.480469 20.710938 15.253906 20.730469 15.070312 20.632812 C 15.054688 20.539062 15.035156 20.464844 15.019531 20.398438 Z M 9.179688 18.570312 C 9.726562 18.769531 10.304688 18.871094 10.882812 18.871094 C 10.882812 19.023438 10.851562 19.175781 10.800781 19.320312 C 10.78125 19.394531 10.769531 19.46875 10.769531 19.546875 C 10.191406 19.472656 9.648438 19.246094 9.195312 18.882812 Z M 14.707031 19.199219 C 14.582031 19.167969 14.464844 19.117188 14.351562 19.058594 C 14.292969 19.027344 14.234375 18.988281 14.171875 18.949219 C 14.109375 18.910156 14.050781 18.867188 13.988281 18.816406 C 13.996094 18.785156 14.046875 18.796875 14.046875 18.757812 C 14.09375 18.78125 14.140625 18.796875 14.1875 18.8125 C 14.285156 18.839844 14.382812 18.859375 14.484375 18.867188 C 14.535156 18.871094 14.582031 18.875 14.632812 18.875 C 14.683594 18.875 14.734375 18.875 14.789062 18.871094 C 15.355469 18.835938 15.960938 18.601562 16.476562 18.558594 C 16.152344 18.769531 15.875 19.035156 15.5625 19.261719 C 15.476562 19.265625 15.394531 19.265625 15.316406 19.265625 C 15.113281 19.273438 14.90625 19.253906 14.707031 19.203125 Z M 13.304688 21.980469 C 12.878906 22.210938 12.410156 22.351562 11.929688 22.398438 C 11.808594 22.371094 11.777344 22.25 11.738281 22.109375 C 11.726562 22.074219 11.71875 22.039062 11.707031 22.003906 C 11.695312 21.96875 11.683594 21.941406 11.671875 21.910156 C 11.464844 21.457031 11.328125 20.976562 11.261719 20.484375 C 11.261719 20.417969 11.257812 20.347656 11.253906 20.273438 C 11.222656 19.566406 11.230469 18.605469 11.921875 18.738281 C 12.550781 18.871094 13.160156 19.09375 13.726562 19.398438 C 13.871094 19.476562 13.988281 19.566406 14.121094 19.640625 C 14.191406 19.679688 14.265625 19.710938 14.339844 19.734375 C 14.386719 19.75 14.429688 19.761719 14.472656 19.769531 C 14.523438 19.777344 14.574219 19.785156 14.625 19.789062 C 14.625 19.847656 14.621094 19.90625 14.617188 19.964844 C 14.402344 20.070312 14.171875 20.140625 13.9375 20.175781 C 13.863281 20.195312 13.789062 20.222656 13.71875 20.257812 C 13.8125 20.261719 13.90625 20.269531 13.996094 20.28125 C 14.238281 20.320312 14.46875 20.390625 14.683594 20.5 L 14.683594 20.546875 C 14.679688 20.679688 14.675781 20.8125 14.667969 20.941406 C 14.234375 21.3125 13.777344 21.660156 13.304688 21.984375 Z M 16.488281 20.828125 C 16.40625 20.808594 16.324219 20.785156 16.246094 20.765625 C 16.242188 20.539062 16.25 20.3125 16.269531 20.089844 C 16.316406 20.058594 16.367188 20.035156 16.421875 20.019531 C 16.609375 19.976562 16.796875 19.949219 16.988281 19.941406 C 16.929688 19.914062 16.871094 19.890625 16.808594 19.875 C 16.773438 19.867188 16.742188 19.855469 16.707031 19.851562 C 16.640625 19.835938 16.570312 19.824219 16.5 19.820312 C 16.398438 19.816406 16.292969 19.828125 16.195312 19.851562 C 16.175781 19.703125 16.132812 19.5625 16.0625 19.433594 L 16.105469 19.414062 C 16.5625 19.214844 17.542969 18.269531 18.105469 18.59375 C 18.246094 18.722656 18.335938 18.894531 18.367188 19.082031 C 18.449219 19.421875 18.5 19.769531 18.515625 20.117188 C 18.53125 20.335938 18.511719 20.554688 18.460938 20.769531 C 18.4375 20.871094 18.394531 20.96875 18.332031 21.054688 C 17.710938 21.042969 17.09375 20.96875 16.488281 20.832031 Z M 16.488281 20.828125 "/>
<path style=" stroke:none;fill-rule:nonzero;fill:rgb(96.862745%,89.411765%,80.392158%);fill-opacity:1;" d="M 13.148438 14.148438 C 12.683594 13.921875 12.355469 14.046875 12.296875 14.125 C 12.179688 14.277344 12.417969 15.105469 12.417969 15.105469 L 12.644531 15.152344 C 12.601562 14.238281 13.148438 14.148438 13.148438 14.148438 Z M 13.148438 14.148438 "/>
<path style=" stroke:none;fill-rule:nonzero;fill:rgb(11.372549%,9.803922%,9.803922%);fill-opacity:1;" d="M 16.042969 21.722656 C 15.910156 21.722656 15.800781 21.828125 15.796875 21.960938 L 16.292969 21.960938 C 16.289062 21.828125 16.179688 21.722656 16.042969 21.722656 Z M 16.042969 21.722656 "/>
<path style=" stroke:none;fill-rule:nonzero;fill:rgb(13.725491%,12.156863%,12.54902%);fill-opacity:1;" d="M 11.730469 22.308594 L 11.511719 22.195312 L 11.511719 22.328125 L 3.625 22.441406 L 3.511719 22.5 L 11.730469 22.5 Z M 11.730469 22.308594 "/>
<path style=" stroke:none;fill-rule:nonzero;fill:rgb(13.725491%,12.156863%,12.54902%);fill-opacity:1;" d="M 20.1875 22.441406 L 13.8125 22.441406 L 13.699219 22.195312 L 13.113281 22.195312 L 13 22.5 L 20.300781 22.5 L 20.300781 22.328125 Z M 20.1875 22.441406 "/>
<path style=" stroke:none;fill-rule:nonzero;fill:rgb(13.725491%,12.156863%,12.54902%);fill-opacity:1;" d="M 3.625 22.441406 L 11.398438 22.441406 L 11.515625 22.074219 L 3.625 21.960938 L 3.511719 22.328125 Z M 3.625 22.441406 "/>
<path style=" stroke:none;fill-rule:nonzero;fill:rgb(13.725491%,12.156863%,12.54902%);fill-opacity:1;" d="M 13.699219 22.328125 L 20.1875 22.441406 L 20.304688 22.074219 L 13.8125 21.960938 Z M 13.699219 22.328125 "/>
</g>
</svg>
