<?xml version="1.0" encoding="UTF-8"?>
<svg xmlns="http://www.w3.org/2000/svg" xmlns:xlink="http://www.w3.org/1999/xlink" width="24px" height="24px" viewBox="0 0 24 24" version="1.1">
<g id="surface1">
<path style=" stroke:none;fill-rule:nonzero;fill:rgb(25.490198%,74.901962%,27.843139%);fill-opacity:1;" d="M 10.65625 15.601562 L 9.386719 15.953125 C 9.5 16.273438 9.585938 16.847656 9.585938 17.617188 L 9.585938 21.410156 L 11.007812 21.410156 L 11.007812 17.398438 C 11.273438 17.078125 11.5625 16.921875 11.871094 16.921875 C 12.023438 16.921875 12.144531 16.957031 12.277344 17.035156 L 12.664062 15.722656 C 12.441406 15.621094 12.34375 15.601562 12.132812 15.601562 C 11.980469 15.601562 11.792969 15.632812 11.671875 15.6875 C 11.40625 15.820312 11.074219 16.117188 10.867188 16.40625 C 10.867188 16.085938 10.789062 15.832031 10.65625 15.601562 Z M 5.761719 13.726562 L 5.605469 13.726562 L 5.605469 21.398438 L 7.082031 21.398438 L 7.082031 18.003906 L 8.945312 18.003906 L 8.945312 16.734375 L 7.082031 16.734375 L 7.082031 14.972656 L 9.410156 14.972656 L 9.5 14.296875 C 8.097656 14.199219 6.828125 13.980469 5.761719 13.726562 Z M 2.308594 22.425781 L 2.992188 23.21875 C 3.652344 22.957031 4.480469 22.359375 4.703125 21.410156 C 4.777344 21.101562 4.800781 20.902344 4.800781 19.902344 L 4.800781 13.734375 L 3.3125 13.734375 L 3.3125 20.066406 C 3.3125 20.894531 3.277344 21.203125 3.167969 21.488281 C 3.023438 21.808594 2.683594 22.183594 2.308594 22.425781 Z M 15.730469 18.53125 C 15.730469 19.878906 15.464844 20.453125 14.859375 20.453125 C 14.582031 20.453125 14.273438 20.296875 14.140625 19.988281 C 14.03125 19.703125 13.964844 19.21875 13.964844 18.554688 C 13.964844 17.992188 14.019531 17.597656 14.109375 17.285156 C 14.21875 16.933594 14.492188 16.714844 14.835938 16.714844 C 15.089844 16.714844 15.308594 16.824219 15.441406 17.011719 C 15.640625 17.277344 15.730469 17.773438 15.730469 18.53125 Z M 16.601562 20.738281 C 17.0625 20.1875 17.273438 19.515625 17.273438 18.542969 C 17.273438 17.628906 17.085938 17 16.65625 16.472656 C 16.191406 15.898438 15.597656 15.621094 14.824219 15.621094 C 13.371094 15.621094 12.398438 16.800781 12.398438 18.589844 C 12.398438 20.375 13.359375 21.523438 14.824219 21.523438 C 15.652344 21.53125 16.191406 21.222656 16.601562 20.738281 Z M 20.636719 17.5625 C 20.636719 18.082031 20.328125 18.367188 19.777344 18.367188 C 19.28125 18.367188 18.949219 18.136719 18.949219 17.5625 C 18.949219 17.035156 19.257812 16.722656 19.789062 16.722656 C 20.316406 16.722656 20.636719 17.035156 20.636719 17.5625 Z M 23.140625 16.351562 L 22.554688 15.414062 C 22.222656 15.722656 21.828125 15.898438 21.441406 15.898438 C 21.265625 15.898438 21.164062 15.875 20.78125 15.777344 C 20.394531 15.664062 20.117188 15.632812 19.808594 15.632812 C 18.429688 15.632812 17.539062 16.382812 17.539062 17.550781 C 17.539062 18.390625 17.914062 18.917969 18.695312 19.128906 C 18.375 19.207031 18.035156 19.371094 17.878906 19.558594 C 17.769531 19.691406 17.714844 19.867188 17.714844 20.078125 C 17.714844 20.253906 17.757812 20.40625 17.824219 20.539062 C 17.902344 20.660156 18 20.761719 18.132812 20.816406 C 18.386719 20.914062 18.792969 20.980469 19.421875 20.992188 C 19.753906 20.992188 19.953125 21.003906 20.019531 21.003906 C 20.40625 21.023438 20.601562 21.089844 20.757812 21.167969 C 20.902344 21.257812 21.011719 21.457031 21.011719 21.675781 C 21.011719 21.898438 20.878906 22.117188 20.667969 22.25 C 20.480469 22.382812 20.171875 22.4375 19.777344 22.4375 C 19.125 22.4375 18.761719 22.195312 18.761719 21.742188 C 18.761719 21.542969 18.785156 21.5 18.828125 21.378906 L 17.527344 21.378906 C 17.472656 21.488281 17.40625 21.644531 17.40625 21.953125 C 17.40625 22.335938 17.546875 22.667969 17.847656 22.957031 C 18.332031 23.429688 19.125 23.5625 19.886719 23.5625 C 20.726562 23.5625 21.539062 23.363281 22.015625 22.832031 C 22.3125 22.503906 22.445312 22.140625 22.445312 21.664062 C 22.445312 21.15625 22.300781 20.773438 21.980469 20.453125 C 21.605469 20.089844 21.175781 19.957031 20.351562 19.945312 L 19.589844 19.933594 C 19.445312 19.933594 19.355469 19.878906 19.355469 19.800781 C 19.355469 19.648438 19.554688 19.515625 19.917969 19.339844 C 20.03125 19.347656 20.0625 19.347656 20.128906 19.347656 C 21.277344 19.347656 22.113281 18.644531 22.113281 17.660156 C 22.113281 17.285156 22.003906 17 21.792969 16.734375 C 21.972656 16.757812 22.027344 16.769531 22.160156 16.769531 C 22.535156 16.769531 22.832031 16.648438 23.140625 16.351562 Z M 5.386719 7.054688 C 3.621094 7.484375 2.417969 8.332031 2.417969 9.304688 C 2.417969 9.910156 2.882812 10.460938 3.644531 10.890625 C 3.410156 10.527344 3.289062 10.128906 3.289062 9.734375 C 3.300781 8.730469 4.082031 7.792969 5.386719 7.054688 Z M 24 10.859375 C 24 10.21875 23.601562 9.632812 22.941406 9.148438 C 22.996094 9.347656 23.039062 9.546875 23.039062 9.742188 C 23.039062 11.5625 20.492188 13.128906 16.875 13.78125 C 17.285156 13.824219 17.703125 13.847656 18.144531 13.847656 C 21.375 13.835938 24 12.5 24 10.859375 Z M 21.914062 9.867188 C 21.914062 9.191406 21.34375 8.574219 20.359375 8.066406 C 20.59375 8.34375 20.714844 8.640625 20.714844 8.949219 C 20.714844 10.570312 17.273438 11.882812 13.015625 11.882812 C 8.769531 11.882812 5.320312 10.570312 5.320312 8.949219 C 5.320312 8.742188 5.375 8.542969 5.484375 8.355469 C 4.800781 8.804688 4.414062 9.324219 4.414062 9.875 C 4.414062 11.628906 8.328125 13.050781 13.160156 13.050781 C 17.988281 13.050781 21.914062 11.609375 21.914062 9.867188 Z M 18.101562 9.777344 C 16.3125 10.925781 10.820312 11.363281 8.460938 9.886719 C 6.609375 8.730469 7.25 6.886719 1.945312 2.851562 C 1.25 2.324219 2.078125 1.761719 2.59375 2.125 C 3.113281 2.488281 2.640625 2.574219 3.6875 3.625 C 5.804688 5.742188 5.78125 3.832031 6.113281 4.5625 C 6.820312 6.070312 8.363281 7.59375 8.363281 7.59375 C 9.917969 8.609375 11.152344 8.828125 13.445312 7.273438 C 14.902344 6.292969 14.304688 8.839844 17.867188 7 C 19.167969 6.324219 19.113281 6.777344 20.4375 4.9375 C 20.988281 4.175781 22.035156 5.519531 20.847656 5.707031 C 20.371094 5.785156 19.566406 6.304688 19.226562 7.121094 C 18.730469 8.34375 18.9375 9.246094 18.101562 9.777344 Z M 8.195312 6.667969 C 7.757812 6.46875 7.292969 5.71875 7.117188 5.421875 C 7.613281 4.9375 7.414062 4.128906 7.128906 3.691406 C 6.851562 3.25 6.511719 3.371094 6.144531 2.960938 C 5.769531 2.554688 6.289062 1.496094 6.761719 2.3125 C 8.539062 5.367188 9.707031 4.097656 11.152344 3.910156 C 12.542969 3.734375 13.777344 4.496094 14.152344 2.34375 C 14.21875 1.992188 14.558594 1.914062 14.59375 2.488281 C 14.625 3.070312 14.847656 4.484375 15.609375 4.660156 C 16.367188 4.847656 16.988281 4.484375 17.164062 4.285156 C 17.339844 4.085938 17.4375 4.109375 17.515625 4.617188 C 17.59375 5.113281 17.792969 5.808594 18.859375 5.035156 C 21.054688 3.46875 20.425781 2.863281 21.289062 2.453125 C 21.773438 2.222656 22.542969 2.972656 21.429688 3.535156 C 19.84375 4.339844 19.675781 5.332031 18.671875 5.960938 C 16.988281 7.019531 17.503906 6.003906 14.792969 5.621094 C 13.746094 5.476562 13.414062 6.632812 12.597656 6.304688 C 10.734375 5.53125 9.421875 5.6875 8.195312 6.667969 Z M 14.074219 1.011719 C 14.140625 1.472656 14.21875 1.460938 14.382812 1.496094 C 14.550781 1.539062 14.757812 1.273438 14.757812 1.03125 C 14.769531 0.777344 14.648438 0.625 14.40625 0.636719 C 14.152344 0.644531 14.0625 0.765625 14.074219 1.011719 Z M 22.234375 1.835938 C 22.433594 2.023438 22.964844 1.902344 23.085938 1.761719 C 23.40625 1.40625 23.414062 1.199219 23.25 0.953125 C 23.085938 0.722656 22.742188 0.757812 22.402344 1.011719 C 22.058594 1.261719 22.125 1.738281 22.234375 1.835938 Z M 22.09375 4.175781 C 21.925781 4.394531 21.914062 4.5625 22.035156 4.683594 C 22.167969 4.816406 22.433594 4.925781 22.621094 4.78125 C 22.808594 4.628906 22.808594 4.40625 22.65625 4.21875 C 22.488281 4.019531 22.269531 4.019531 22.09375 4.175781 Z M 5.351562 1.417969 C 5.605469 1.496094 5.726562 1.738281 5.9375 1.460938 C 6.046875 1.328125 6.058594 1.140625 5.914062 0.945312 C 5.828125 0.824219 5.40625 0.734375 5.230469 0.910156 C 5.054688 1.085938 5.21875 1.375 5.351562 1.417969 Z M 0.179688 1.261719 C 0.644531 1.550781 0.941406 1.980469 1.292969 1.59375 C 1.414062 1.460938 1.558594 1.230469 1.304688 0.765625 C 1.117188 0.425781 0.511719 0.292969 0.300781 0.425781 C 0.0820312 0.546875 -0.183594 1.042969 0.179688 1.261719 Z M 4.449219 3.457031 C 4.589844 3.613281 4.84375 3.601562 5 3.511719 C 5.140625 3.425781 5.121094 3.195312 4.976562 2.996094 C 4.890625 2.875 4.625 2.808594 4.449219 2.996094 C 4.269531 3.183594 4.347656 3.347656 4.449219 3.457031 Z M 4.449219 3.457031 "/>
</g>
</svg>
