<?xml version="1.0" encoding="UTF-8"?>
<svg xmlns="http://www.w3.org/2000/svg" xmlns:xlink="http://www.w3.org/1999/xlink" width="24px" height="24px" viewBox="0 0 24 24" version="1.1">
<g id="surface1">
<path style="fill-rule:nonzero;fill:rgb(100%,100%,100%);fill-opacity:1;stroke-width:1;stroke-linecap:butt;stroke-linejoin:miter;stroke:rgb(100%,100%,100%);stroke-opacity:1;stroke-miterlimit:4;" d="M 482.583333 147.833333 L 482.583333 364 C 482.583333 378 475 391.083333 462.916667 398.166667 L 275.666667 506.25 C 269.666667 509.75 262.916667 511.5 255.916667 511.5 C 249.083333 511.5 242.333333 509.75 236.333333 506.25 L 173.75 469.25 C 164.5 464.083333 169 462.166667 172.083333 461.083333 C 184.583333 456.833333 187.083333 455.833333 200.333333 448.25 C 201.75 447.5 203.583333 447.75 205 448.583333 L 253 477.083333 C 254.75 478.083333 257.25 478.083333 258.833333 477.083333 L 446.083333 369 C 447.833333 368 449 366.083333 449 364 L 449 147.833333 C 449 145.75 447.833333 143.75 446.083333 142.666667 L 258.833333 34.75 C 257.166667 33.666667 254.833333 33.666667 253.083333 34.75 L 66 142.75 C 64.166667 143.75 63 145.833333 63 147.833333 L 63 364 C 63 366.083333 64.166667 368 65.916667 369 L 117.25 398.666667 C 145.083333 412.5 162.166667 396.166667 162.166667 379.666667 L 162.166667 166.333333 C 162.166667 163.333333 164.583333 160.916667 167.583333 160.916667 L 191.333333 160.916667 C 194.25 160.916667 196.75 163.25 196.75 166.333333 L 196.75 379.666667 C 196.75 416.833333 176.5 438.166667 141.25 438.166667 C 130.5 438.166667 121.916667 438.166667 98.166667 426.416667 L 49.083333 398.166667 C 36.916667 391.166667 29.416667 378 29.416667 364 L 29.416667 147.833333 C 29.416667 133.833333 36.916667 120.75 49.083333 113.75 L 236.333333 5.5 C 248.166667 -1.166667 263.916667 -1.166667 275.666667 5.5 L 462.916667 113.75 C 475 120.75 482.583333 133.833333 482.583333 147.833333 Z M 321.166667 343.333333 C 265.25 343.333333 253 329.333333 248.916667 301.5 C 248.416667 298.583333 245.833333 296.333333 242.833333 296.333333 L 215.5 296.333333 C 212.166667 296.333333 209.416667 299.083333 209.416667 302.5 C 209.416667 338 228.75 380.416667 321.166667 380.416667 C 388.083333 380.416667 426.416667 354.083333 426.416667 308.083333 C 426.416667 262.5 395.583333 250.333333 330.75 241.75 C 265.166667 233.083333 258.5 228.583333 258.5 213.25 C 258.5 200.583333 264.166667 183.666667 312.666667 183.666667 C 356.083333 183.666667 372.083333 193 378.666667 222.25 C 379.25 225 381.75 227 384.583333 227 L 412 227 C 413.666667 227 415.25 226.25 416.416667 225.083333 C 417.583333 223.75 418.25 222.083333 418.083333 220.333333 C 413.833333 170 380.333333 146.5 312.666667 146.5 C 252.5 146.5 216.583333 171.916667 216.583333 214.5 C 216.583333 260.75 252.333333 273.5 310.083333 279.25 C 379.25 286 384.583333 296.083333 384.583333 309.666667 C 384.583333 333.333333 365.666667 343.333333 321.166667 343.333333 Z M 321.166667 343.333333 " transform="matrix(0.046875,0,0,0.046875,0,0)"/>
</g>
</svg>
