<?xml version="1.0" encoding="UTF-8"?>
<svg xmlns="http://www.w3.org/2000/svg" xmlns:xlink="http://www.w3.org/1999/xlink" width="24px" height="24px" viewBox="0 0 24 24" version="1.1">
<g id="surface1">
<path style="fill-rule:nonzero;fill:rgb(100%,100%,100%);fill-opacity:1;stroke-width:2;stroke-linecap:butt;stroke-linejoin:miter;stroke:rgb(3.529412%,11.764706%,18.039216%);stroke-opacity:1;stroke-miterlimit:4;" d="M 12.994466 -1.001953 L 56.005534 -1.001953 C 63.728516 -1.001953 70.001953 5.271484 70.001953 12.994466 L 70.001953 56.005534 C 70.001953 63.728516 63.728516 70.001953 56.005534 70.001953 L 12.994466 70.001953 C 5.271484 70.001953 -1.001953 63.728516 -1.001953 56.005534 L -1.001953 12.994466 C -1.001953 5.271484 5.271484 -1.001953 12.994466 -1.001953 Z M 12.994466 -1.001953 " transform="matrix(0.328767,0,0,0.328767,0.657534,0.657534)"/>
<path style=" stroke:none;fill-rule:nonzero;fill:rgb(0%,0%,0%);fill-opacity:1;" d="M 15.503906 16.53125 C 15.609375 15.640625 15.578125 15.511719 16.238281 15.65625 L 16.40625 15.671875 C 16.917969 15.691406 17.582031 15.589844 17.972656 15.40625 C 18.816406 15.015625 19.316406 14.363281 18.484375 14.535156 C 16.589844 14.925781 16.460938 14.285156 16.460938 14.285156 C 18.460938 11.316406 19.296875 7.550781 18.574219 6.628906 C 16.605469 4.113281 13.199219 5.304688 13.144531 5.332031 L 13.125 5.335938 C 12.75 5.257812 12.332031 5.214844 11.859375 5.207031 C 11.003906 5.191406 10.355469 5.429688 9.859375 5.804688 C 9.859375 5.804688 3.78125 3.300781 4.066406 8.953125 C 4.125 10.15625 5.789062 18.050781 7.773438 15.667969 C 8.5 14.792969 9.199219 14.058594 9.199219 14.058594 C 9.546875 14.289062 9.964844 14.40625 10.402344 14.363281 L 10.433594 14.335938 C 10.425781 14.445312 10.429688 14.550781 10.449219 14.675781 C 9.9375 15.246094 10.085938 15.347656 9.066406 15.554688 C 8.03125 15.769531 8.640625 16.148438 9.035156 16.246094 C 9.515625 16.367188 10.628906 16.539062 11.378906 15.488281 L 11.351562 15.605469 C 11.550781 15.765625 11.539062 16.757812 11.566406 17.46875 C 11.59375 18.179688 11.640625 18.839844 11.785156 19.230469 C 11.929688 19.621094 12.101562 20.625 13.445312 20.335938 C 14.566406 20.097656 15.425781 19.75 15.503906 16.53125 "/>
<path style=" stroke:none;fill-rule:nonzero;fill:rgb(0%,0%,0%);fill-opacity:1;" d="M 13.007812 21.039062 C 12.414062 21.039062 12.027344 20.808594 11.792969 20.585938 C 11.4375 20.253906 11.296875 19.820312 11.210938 19.5625 L 11.175781 19.457031 C 11.007812 19 10.949219 18.34375 10.914062 17.496094 C 10.910156 17.367188 10.90625 17.238281 10.902344 17.097656 C 10.898438 16.996094 10.894531 16.871094 10.890625 16.734375 C 10.679688 16.835938 10.453125 16.910156 10.214844 16.949219 C 9.796875 17.019531 9.347656 16.996094 8.878906 16.878906 C 8.546875 16.796875 8.203125 16.625 8.007812 16.359375 C 7.433594 16.859375 6.890625 16.792969 6.59375 16.695312 C 6.066406 16.519531 5.597656 16.027344 5.160156 15.191406 C 4.84375 14.597656 4.539062 13.824219 4.253906 12.886719 C 3.757812 11.261719 3.445312 9.546875 3.414062 8.984375 C 3.328125 7.226562 3.800781 5.964844 4.824219 5.242188 C 6.4375 4.105469 8.882812 4.773438 9.773438 5.078125 C 10.371094 4.71875 11.074219 4.542969 11.871094 4.554688 C 12.300781 4.5625 12.707031 4.597656 13.085938 4.667969 C 13.480469 4.542969 14.257812 4.363281 15.148438 4.375 C 16.792969 4.394531 18.15625 5.035156 19.085938 6.226562 C 19.753906 7.078125 19.425781 8.863281 19.167969 9.851562 C 18.808594 11.242188 18.179688 12.722656 17.40625 14.011719 C 17.617188 14.011719 17.921875 13.988281 18.351562 13.898438 C 19.207031 13.722656 19.457031 14.179688 19.523438 14.382812 C 19.796875 15.207031 18.617188 15.828125 18.246094 15.996094 C 17.777344 16.214844 17.007812 16.347656 16.378906 16.320312 L 16.351562 16.320312 L 16.183594 16.304688 L 16.152344 16.578125 C 16.109375 18.210938 15.878906 19.242188 15.398438 19.925781 C 14.894531 20.640625 14.195312 20.84375 13.582031 20.972656 C 13.371094 21.019531 13.179688 21.039062 13.007812 21.039062 Z M 11.757812 15.097656 C 12.140625 15.40625 12.175781 15.984375 12.203125 17.0625 C 12.207031 17.195312 12.210938 17.324219 12.214844 17.441406 C 12.230469 17.804688 12.265625 18.648438 12.398438 19.003906 C 12.414062 19.054688 12.433594 19.105469 12.449219 19.160156 C 12.597656 19.609375 12.671875 19.835938 13.308594 19.699219 C 13.84375 19.585938 14.117188 19.484375 14.332031 19.175781 C 14.644531 18.730469 14.820312 17.835938 14.851562 16.515625 L 15.503906 16.53125 L 14.855469 16.453125 L 14.875 16.292969 C 14.9375 15.761719 14.980469 15.375 15.335938 15.121094 C 15.621094 14.917969 15.949219 14.9375 16.207031 14.984375 C 15.921875 14.769531 15.84375 14.515625 15.824219 14.414062 L 15.769531 14.148438 L 15.921875 13.921875 C 16.800781 12.617188 17.523438 11.015625 17.90625 9.527344 C 18.304688 7.996094 18.183594 7.183594 18.0625 7.03125 C 16.46875 4.992188 13.699219 5.832031 13.410156 5.929688 L 13.363281 5.957031 L 13.117188 6 L 12.992188 5.976562 C 12.648438 5.902344 12.261719 5.863281 11.851562 5.855469 C 11.203125 5.84375 10.683594 6 10.253906 6.324219 L 9.957031 6.546875 L 9.613281 6.40625 C 8.875 6.105469 6.714844 5.5 5.574219 6.308594 C 4.941406 6.757812 4.652344 7.636719 4.714844 8.921875 C 4.738281 9.34375 5.027344 10.949219 5.5 12.507812 C 6.160156 14.660156 6.753906 15.375 7.003906 15.457031 C 7.046875 15.472656 7.160156 15.386719 7.273438 15.25 C 8.003906 14.371094 8.699219 13.640625 8.726562 13.609375 L 9.105469 13.210938 L 9.558594 13.515625 C 9.742188 13.636719 9.945312 13.707031 10.15625 13.71875 L 11.242188 12.792969 L 11.082031 14.398438 C 11.078125 14.433594 11.078125 14.484375 11.09375 14.574219 L 11.140625 14.878906 L 10.933594 15.109375 L 10.910156 15.136719 L 11.507812 15.410156 Z M 11.757812 15.097656 "/>
<path style=" stroke:none;fill-rule:nonzero;fill:rgb(20%,40.392157%,56.862748%);fill-opacity:1;" d="M 18.484375 14.535156 C 16.589844 14.925781 16.460938 14.285156 16.460938 14.285156 C 18.460938 11.316406 19.296875 7.550781 18.574219 6.628906 C 16.605469 4.113281 13.199219 5.304688 13.144531 5.332031 L 13.125 5.335938 C 12.75 5.257812 12.332031 5.214844 11.859375 5.207031 C 11.003906 5.191406 10.355469 5.429688 9.859375 5.804688 C 9.859375 5.804688 3.78125 3.300781 4.066406 8.953125 C 4.125 10.15625 5.789062 18.050781 7.773438 15.667969 C 8.5 14.796875 9.199219 14.058594 9.199219 14.058594 C 9.546875 14.289062 9.964844 14.40625 10.402344 14.363281 L 10.433594 14.335938 C 10.421875 14.445312 10.429688 14.550781 10.449219 14.675781 C 9.9375 15.246094 10.085938 15.347656 9.066406 15.558594 C 8.03125 15.769531 8.636719 16.148438 9.035156 16.25 C 9.515625 16.367188 10.628906 16.539062 11.378906 15.488281 L 11.351562 15.605469 C 11.550781 15.765625 11.691406 16.652344 11.667969 17.449219 C 11.644531 18.25 11.628906 18.800781 11.785156 19.230469 C 11.941406 19.660156 12.101562 20.625 13.445312 20.335938 C 14.566406 20.097656 15.148438 19.472656 15.230469 18.433594 C 15.285156 17.695312 15.417969 17.804688 15.425781 17.144531 L 15.527344 16.832031 C 15.648438 15.828125 15.546875 15.503906 16.238281 15.65625 L 16.40625 15.671875 C 16.917969 15.691406 17.582031 15.589844 17.972656 15.40625 C 18.816406 15.015625 19.316406 14.363281 18.484375 14.535156 Z M 18.484375 14.535156 "/>
<path style=" stroke:none;fill-rule:nonzero;fill:rgb(100%,100%,100%);fill-opacity:1;" d="M 13.074219 20.636719 C 11.957031 20.636719 11.601562 19.75 11.457031 19.386719 C 11.242188 18.855469 11.195312 16.792969 11.246094 15.101562 C 11.246094 14.984375 11.347656 14.890625 11.46875 14.890625 C 11.585938 14.894531 11.683594 14.996094 11.679688 15.117188 C 11.625 17.066406 11.699219 18.832031 11.859375 19.226562 C 12.105469 19.839844 12.476562 20.375 13.527344 20.152344 C 14.527344 19.9375 14.902344 19.558594 15.066406 18.59375 C 15.195312 17.851562 15.449219 15.742188 15.480469 15.328125 C 15.488281 15.207031 15.589844 15.117188 15.710938 15.125 C 15.832031 15.136719 15.921875 15.238281 15.910156 15.359375 C 15.878906 15.792969 15.628906 17.898438 15.496094 18.667969 C 15.296875 19.808594 14.789062 20.324219 13.617188 20.574219 C 13.417969 20.617188 13.238281 20.636719 13.074219 20.636719 Z M 7.003906 16.304688 C 6.898438 16.304688 6.800781 16.285156 6.714844 16.257812 C 5.988281 16.015625 5.296875 14.832031 4.65625 12.738281 C 4.171875 11.144531 3.863281 9.480469 3.835938 8.941406 C 3.753906 7.335938 4.167969 6.203125 5.0625 5.570312 C 6.832031 4.316406 9.808594 5.511719 9.933594 5.5625 C 10.042969 5.605469 10.097656 5.734375 10.050781 5.84375 C 10.007812 5.957031 9.878906 6.007812 9.769531 5.964844 C 9.742188 5.953125 6.886719 4.808594 5.3125 5.925781 C 4.546875 6.46875 4.195312 7.472656 4.269531 8.917969 C 4.292969 9.375 4.578125 10.996094 5.070312 12.613281 C 5.640625 14.480469 6.292969 15.660156 6.851562 15.847656 C 6.941406 15.875 7.210938 15.964844 7.59375 15.503906 C 8.316406 14.636719 8.976562 13.945312 8.984375 13.9375 C 9.066406 13.851562 9.203125 13.847656 9.289062 13.929688 C 9.378906 14.015625 9.378906 14.152344 9.296875 14.238281 C 9.289062 14.246094 8.636719 14.925781 7.925781 15.78125 C 7.589844 16.1875 7.265625 16.304688 7.003906 16.304688 Z M 16.445312 14.476562 C 16.40625 14.476562 16.363281 14.464844 16.324219 14.441406 C 16.226562 14.375 16.199219 14.238281 16.265625 14.140625 C 18.289062 11.140625 19 7.515625 18.390625 6.738281 C 17.625 5.761719 16.546875 5.25 15.179688 5.222656 C 14.167969 5.199219 13.367188 5.457031 13.234375 5.503906 L 13.203125 5.515625 C 13.070312 5.558594 12.96875 5.484375 12.929688 5.402344 C 12.882812 5.300781 12.921875 5.183594 13.015625 5.125 C 13.023438 5.121094 13.042969 5.113281 13.074219 5.101562 L 13.070312 5.101562 L 13.074219 5.101562 C 13.296875 5.019531 14.113281 4.773438 15.125 4.785156 C 16.632812 4.800781 17.882812 5.386719 18.730469 6.472656 C 19.132812 6.984375 19.136719 8.167969 18.734375 9.71875 C 18.328125 11.300781 17.558594 13 16.628906 14.382812 C 16.585938 14.445312 16.515625 14.476562 16.445312 14.476562 Z M 16.550781 15.867188 C 16.207031 15.867188 15.894531 15.816406 15.710938 15.707031 C 15.519531 15.59375 15.484375 15.4375 15.480469 15.355469 C 15.425781 14.441406 15.929688 14.285156 16.1875 14.210938 C 16.152344 14.15625 16.101562 14.09375 16.046875 14.027344 C 15.898438 13.839844 15.691406 13.585938 15.535156 13.203125 C 15.511719 13.140625 15.433594 13.003906 15.34375 12.839844 C 14.855469 11.96875 13.84375 10.152344 14.496094 9.222656 C 14.796875 8.789062 15.394531 8.621094 16.277344 8.714844 C 16.019531 7.925781 14.78125 5.445312 11.84375 5.398438 C 10.960938 5.382812 10.234375 5.65625 9.691406 6.207031 C 8.472656 7.4375 8.515625 9.664062 8.519531 9.6875 C 8.519531 9.804688 8.425781 9.90625 8.308594 9.910156 C 8.1875 9.910156 8.085938 9.816406 8.085938 9.695312 C 8.082031 9.597656 8.035156 7.261719 9.382812 5.898438 C 10.015625 5.261719 10.84375 4.949219 11.851562 4.964844 C 13.730469 4.996094 14.941406 5.949219 15.625 6.746094 C 16.367188 7.613281 16.734375 8.570312 16.765625 8.890625 C 16.785156 9.128906 16.617188 9.175781 16.582031 9.183594 L 16.503906 9.183594 C 15.636719 9.046875 15.078125 9.140625 14.847656 9.46875 C 14.355469 10.179688 15.3125 11.894531 15.722656 12.628906 C 15.828125 12.816406 15.902344 12.953125 15.9375 13.035156 C 16.070312 13.363281 16.246094 13.582031 16.386719 13.757812 C 16.511719 13.910156 16.617188 14.046875 16.65625 14.203125 C 16.675781 14.234375 16.925781 14.609375 18.425781 14.300781 C 18.804688 14.222656 19.027344 14.289062 19.097656 14.496094 C 19.234375 14.90625 18.472656 15.382812 18.050781 15.582031 C 17.675781 15.753906 17.070312 15.867188 16.550781 15.867188 Z M 15.910156 15.320312 C 15.960938 15.367188 16.199219 15.449219 16.691406 15.429688 C 17.128906 15.410156 17.589844 15.316406 17.867188 15.1875 C 18.222656 15.023438 18.460938 14.835938 18.582031 14.710938 L 18.515625 14.722656 C 17.554688 14.921875 16.878906 14.894531 16.5 14.644531 C 16.472656 14.628906 16.449219 14.609375 16.425781 14.589844 C 16.382812 14.605469 16.347656 14.617188 16.320312 14.625 C 16.105469 14.6875 15.882812 14.746094 15.910156 15.320312 Z M 9.714844 16.53125 C 9.476562 16.53125 9.226562 16.5 8.96875 16.4375 C 8.703125 16.371094 8.257812 16.167969 8.261719 15.839844 C 8.269531 15.472656 8.808594 15.363281 9.007812 15.320312 C 9.738281 15.171875 9.785156 15.109375 10.011719 14.820312 C 10.078125 14.738281 10.160156 14.632812 10.273438 14.507812 C 10.441406 14.320312 10.621094 14.226562 10.816406 14.226562 C 10.949219 14.226562 11.0625 14.269531 11.132812 14.300781 C 11.367188 14.398438 11.558594 14.628906 11.640625 14.910156 C 11.710938 15.160156 11.675781 15.402344 11.542969 15.589844 C 11.101562 16.207031 10.46875 16.53125 9.714844 16.53125 Z M 8.730469 15.859375 C 8.796875 15.910156 8.929688 15.976562 9.074219 16.015625 C 9.296875 16.070312 9.511719 16.097656 9.714844 16.097656 C 10.332031 16.097656 10.828125 15.84375 11.191406 15.335938 C 11.265625 15.230469 11.242188 15.097656 11.222656 15.027344 C 11.179688 14.878906 11.074219 14.746094 10.96875 14.703125 C 10.910156 14.679688 10.859375 14.660156 10.816406 14.660156 C 10.792969 14.660156 10.71875 14.660156 10.597656 14.796875 C 10.492188 14.914062 10.417969 15.007812 10.351562 15.089844 C 10.070312 15.449219 9.9375 15.574219 9.097656 15.746094 C 8.890625 15.789062 8.785156 15.832031 8.730469 15.859375 Z M 10.402344 14.859375 C 10.296875 14.859375 10.203125 14.78125 10.1875 14.675781 C 10.179688 14.636719 10.179688 14.601562 10.175781 14.566406 C 9.625 14.554688 9.089844 14.320312 8.683594 13.894531 C 8.171875 13.363281 7.941406 12.621094 8.046875 11.867188 C 8.160156 11.042969 8.117188 10.320312 8.09375 9.929688 C 8.089844 9.820312 8.082031 9.742188 8.082031 9.691406 C 8.085938 9.621094 8.085938 9.4375 8.695312 9.128906 C 8.910156 9.019531 9.34375 8.828125 9.820312 8.78125 C 10.605469 8.699219 11.125 9.046875 11.277344 9.765625 C 11.695312 11.699219 11.3125 12.558594 11.03125 13.183594 C 10.976562 13.296875 10.929688 13.40625 10.886719 13.515625 L 10.855469 13.609375 C 10.703125 14.007812 10.578125 14.351562 10.617188 14.609375 C 10.632812 14.726562 10.550781 14.839844 10.433594 14.855469 Z M 8.519531 9.75 L 8.527344 9.90625 C 8.550781 10.308594 8.597656 11.0625 8.476562 11.925781 C 8.386719 12.550781 8.578125 13.160156 9 13.59375 C 9.328125 13.941406 9.765625 14.132812 10.214844 14.132812 L 10.222656 14.132812 C 10.273438 13.921875 10.355469 13.699219 10.445312 13.457031 L 10.480469 13.363281 C 10.527344 13.242188 10.578125 13.125 10.632812 13.003906 C 10.90625 12.402344 11.242188 11.652344 10.855469 9.855469 C 10.777344 9.5 10.589844 9.296875 10.285156 9.226562 C 9.65625 9.089844 8.714844 9.5625 8.519531 9.75 Z M 9.828125 9.65625 C 9.816406 9.734375 9.96875 9.9375 10.167969 9.964844 C 10.363281 9.996094 10.53125 9.835938 10.542969 9.757812 C 10.554688 9.679688 10.402344 9.597656 10.207031 9.570312 C 10.007812 9.542969 9.839844 9.582031 9.828125 9.65625 Z M 10.210938 10.042969 L 10.15625 10.039062 C 10.035156 10.019531 9.910156 9.945312 9.824219 9.832031 C 9.796875 9.792969 9.746094 9.714844 9.757812 9.648438 C 9.769531 9.546875 9.894531 9.488281 10.082031 9.488281 C 10.125 9.488281 10.171875 9.492188 10.214844 9.496094 C 10.320312 9.511719 10.417969 9.542969 10.488281 9.582031 C 10.613281 9.652344 10.621094 9.726562 10.613281 9.765625 C 10.601562 9.878906 10.425781 10.042969 10.210938 10.042969 Z M 9.902344 9.671875 C 9.90625 9.71875 10.023438 9.875 10.175781 9.894531 L 10.210938 9.898438 C 10.351562 9.898438 10.457031 9.785156 10.472656 9.75 C 10.457031 9.726562 10.367188 9.664062 10.195312 9.640625 C 10.15625 9.636719 10.121094 9.632812 10.085938 9.632812 C 9.972656 9.632812 9.914062 9.65625 9.902344 9.671875 Z M 15.832031 9.5 C 15.84375 9.578125 15.691406 9.78125 15.492188 9.808594 C 15.296875 9.835938 15.128906 9.675781 15.117188 9.601562 C 15.105469 9.523438 15.257812 9.441406 15.457031 9.414062 C 15.652344 9.382812 15.820312 9.425781 15.832031 9.5 Z M 15.449219 9.847656 C 15.257812 9.847656 15.09375 9.703125 15.082031 9.605469 C 15.066406 9.492188 15.253906 9.402344 15.449219 9.375 C 15.492188 9.371094 15.535156 9.367188 15.578125 9.367188 C 15.746094 9.367188 15.855469 9.417969 15.867188 9.496094 C 15.875 9.546875 15.835938 9.628906 15.765625 9.699219 C 15.722656 9.746094 15.628906 9.828125 15.5 9.847656 Z M 15.578125 9.441406 C 15.539062 9.441406 15.5 9.441406 15.460938 9.449219 C 15.265625 9.476562 15.148438 9.554688 15.152344 9.597656 C 15.160156 9.640625 15.285156 9.777344 15.449219 9.777344 L 15.488281 9.773438 C 15.597656 9.757812 15.675781 9.691406 15.714844 9.648438 C 15.773438 9.585938 15.800781 9.527344 15.796875 9.507812 C 15.792969 9.480469 15.71875 9.441406 15.578125 9.441406 Z M 16.117188 13.90625 C 16.074219 13.90625 16.03125 13.894531 15.996094 13.871094 C 15.894531 13.804688 15.871094 13.667969 15.9375 13.570312 C 16.398438 12.878906 16.3125 12.175781 16.230469 11.496094 C 16.195312 11.203125 16.160156 10.902344 16.171875 10.617188 C 16.179688 10.320312 16.21875 10.074219 16.253906 9.839844 C 16.296875 9.558594 16.335938 9.296875 16.320312 8.980469 C 16.3125 8.863281 16.40625 8.757812 16.527344 8.753906 C 16.644531 8.746094 16.746094 8.839844 16.753906 8.957031 C 16.773438 9.316406 16.726562 9.617188 16.683594 9.90625 C 16.648438 10.128906 16.613281 10.359375 16.605469 10.628906 C 16.597656 10.886719 16.628906 11.15625 16.664062 11.441406 C 16.75 12.167969 16.847656 12.988281 16.296875 13.808594 C 16.253906 13.871094 16.1875 13.90625 16.117188 13.90625 Z M 16.117188 13.90625 "/>
</g>
</svg>
