<?xml version="1.0" encoding="UTF-8"?>
<svg xmlns="http://www.w3.org/2000/svg" xmlns:xlink="http://www.w3.org/1999/xlink" width="24px" height="px" viewBox="0 0 24 24" version="1.1">
<g id="surface1">
<path style=" stroke:none;fill-rule:nonzero;fill:rgb(90.196079%,32.156864%,17.254902%);fill-opacity:1;" d="M 12 22.5 C 10.121094 22.5 8.597656 21.246094 8.597656 19.695312 L 15.402344 19.695312 C 15.402344 21.242188 13.878906 22.5 12 22.5 Z M 12 22.5 "/>
<path style=" stroke:none;fill-rule:nonzero;fill:rgb(90.196079%,32.156864%,17.254902%);fill-opacity:1;" d="M 17.621094 18.765625 L 6.378906 18.765625 L 6.378906 16.726562 L 17.621094 16.726562 Z M 17.621094 18.765625 "/>
<path style=" stroke:none;fill-rule:nonzero;fill:rgb(90.196079%,32.156864%,17.254902%);fill-opacity:1;" d="M 17.582031 15.675781 L 6.410156 15.675781 C 6.371094 15.632812 6.335938 15.589844 6.296875 15.546875 C 5.546875 14.71875 4.972656 13.742188 4.613281 12.679688 C 4.609375 12.652344 6.007812 12.964844 7 13.1875 C 7 13.1875 7.511719 13.304688 8.257812 13.441406 C 7.535156 12.609375 7.128906 11.546875 7.117188 10.441406 C 7.117188 8.042969 8.953125 5.949219 8.292969 4.253906 C 8.9375 4.308594 9.628906 5.617188 9.675781 7.667969 C 10.328125 6.527344 10.667969 5.234375 10.648438 3.921875 C 10.648438 2.820312 11.375 1.546875 12.101562 1.5 C 11.453125 2.566406 12.265625 3.480469 12.992188 5.746094 C 13.261719 6.59375 13.226562 8.027344 13.4375 8.933594 C 13.507812 7.046875 13.832031 4.296875 15.027344 3.347656 C 14.503906 4.546875 15.101562 6.039062 15.519531 6.761719 C 16.246094 7.859375 16.621094 9.148438 16.59375 10.464844 C 16.589844 11.5625 16.199219 12.621094 15.488281 13.453125 C 16.277344 13.304688 16.824219 13.171875 16.824219 13.171875 L 19.386719 12.671875 C 19.039062 13.804688 18.421875 14.835938 17.582031 15.675781 Z M 17.582031 15.675781 "/>
</g>
</svg>
