<?xml version="1.0" encoding="UTF-8"?>
<svg xmlns="http://www.w3.org/2000/svg" xmlns:xlink="http://www.w3.org/1999/xlink" width="24px" height="px" viewBox="0 0 24 24" version="1.1">
<g id="surface1">
<path style="fill:none;stroke-width:2;stroke-linecap:round;stroke-linejoin:round;stroke:rgb(100%,100%,100%);stroke-opacity:1;stroke-miterlimit:4;" d="M 17 15 L 12 15 M 7 10 L 10 12.5 L 7 15 M 3 15.800781 L 3 8.199219 C 3 7.082031 3 6.519531 3.21875 6.09375 C 3.410156 5.714844 3.714844 5.410156 4.09375 5.21875 C 4.519531 5 5.082031 5 6.199219 5 L 17.800781 5 C 18.921875 5 19.480469 5 19.90625 5.21875 C 20.285156 5.410156 20.589844 5.714844 20.78125 6.09375 C 21 6.519531 21 7.078125 21 8.195312 L 21 15.804688 C 21 16.921875 21 17.480469 20.78125 17.90625 C 20.589844 18.285156 20.285156 18.589844 19.90625 18.78125 C 19.480469 19 18.921875 19 17.804688 19 L 6.195312 19 C 5.078125 19 4.519531 19 4.09375 18.78125 C 3.714844 18.589844 3.410156 18.285156 3.21875 17.90625 C 3 17.480469 3 16.921875 3 15.800781 Z M 3 15.800781 "/>
</g>
</svg>
