<?xml version="1.0" encoding="UTF-8"?>
<svg xmlns="http://www.w3.org/2000/svg" xmlns:xlink="http://www.w3.org/1999/xlink" width="24px" height="px" viewBox="0 0 24 24" version="1.1">
<defs>
<filter id="alpha" filterUnits="objectBoundingBox" x="0%" y="0%" width="100%" height="100%">
  <feColorMatrix type="matrix" in="SourceGraphic" values="0 0 0 0 1 0 0 0 0 1 0 0 0 0 1 0 0 0 1 0"/>
</filter>
<mask id="mask0">
  <g filter="url(#alpha)">
<rect x="0" y="0" width="24" height="24" style="fill:rgb(0%,0%,0%);fill-opacity:0.301961;stroke:none;"/>
  </g>
</mask>
<clipPath id="clip1">
  <rect x="0" y="0" width="24" height="24"/>
</clipPath>
<g id="surface5" clip-path="url(#clip1)">
<path style=" stroke:none;fill-rule:nonzero;fill:rgb(77.254903%,77.254903%,77.254903%);fill-opacity:1;" d="M 21.753906 13.050781 L 21.78125 13.050781 C 22.039062 13.054688 22.285156 12.972656 22.488281 12.8125 C 22.714844 12.617188 22.855469 12.339844 22.875 12.039062 L 22.875 11.925781 C 22.832031 11.382812 22.386719 10.960938 21.84375 10.949219 L 21.835938 10.949219 C 21.320312 10.949219 20.804688 10.949219 20.289062 10.949219 L 19.125 10.949219 L 19.125 8.96875 L 21.785156 8.96875 C 22.367188 8.984375 22.851562 8.53125 22.875 7.949219 L 22.875 7.859375 C 22.855469 7.523438 22.675781 7.214844 22.390625 7.035156 C 22.203125 6.914062 21.984375 6.855469 21.765625 6.863281 L 19.09375 6.863281 C 19.070312 6.597656 19 6.332031 18.882812 6.089844 C 18.621094 5.566406 18.164062 5.171875 17.609375 4.992188 C 17.457031 4.941406 17.296875 4.910156 17.136719 4.894531 L 17.136719 3.710938 C 17.136719 3.191406 17.136719 2.675781 17.136719 2.164062 C 17.125 1.597656 16.675781 1.144531 16.109375 1.125 L 16.023438 1.125 C 15.472656 1.15625 15.039062 1.613281 15.035156 2.164062 C 15.035156 2.742188 15.035156 3.320312 15.035156 3.894531 L 15.035156 4.875 L 13.050781 4.875 L 13.050781 3.734375 C 13.050781 3.210938 13.050781 2.6875 13.050781 2.171875 C 13.042969 1.609375 12.601562 1.148438 12.039062 1.125 L 11.925781 1.125 C 11.378906 1.167969 10.957031 1.617188 10.949219 2.164062 C 10.949219 2.679688 10.949219 3.195312 10.949219 3.710938 L 10.949219 4.882812 C 10.289062 4.882812 9.628906 4.882812 8.972656 4.882812 L 8.972656 3.664062 C 8.972656 3.167969 8.972656 2.667969 8.972656 2.175781 C 8.972656 1.898438 8.863281 1.636719 8.671875 1.441406 C 8.476562 1.242188 8.210938 1.128906 7.933594 1.125 L 7.875 1.125 C 7.320312 1.152344 6.878906 1.605469 6.871094 2.160156 C 6.871094 2.671875 6.871094 3.183594 6.871094 3.699219 L 6.871094 4.898438 C 6.03125 4.980469 5.3125 5.53125 5.019531 6.324219 C 4.957031 6.496094 4.914062 6.679688 4.898438 6.867188 L 3.71875 6.867188 C 3.199219 6.867188 2.679688 6.867188 2.164062 6.867188 L 2.15625 6.867188 C 1.601562 6.882812 1.152344 7.320312 1.125 7.875 L 1.125 7.945312 C 1.136719 8.269531 1.296875 8.570312 1.554688 8.765625 C 1.75 8.902344 1.984375 8.976562 2.222656 8.96875 L 4.875 8.96875 L 4.875 10.949219 L 3.710938 10.949219 C 3.195312 10.949219 2.679688 10.949219 2.167969 10.949219 C 1.621094 10.960938 1.167969 11.386719 1.125 11.933594 L 1.125 12.074219 C 1.164062 12.621094 1.617188 13.046875 2.164062 13.050781 C 2.699219 13.050781 3.230469 13.050781 3.765625 13.050781 L 4.875 13.050781 L 4.875 15.039062 L 4.65625 15.039062 C 4.195312 15.03125 3.738281 15.039062 3.277344 15.039062 L 2.316406 15.039062 C 2.074219 15.019531 1.835938 15.078125 1.625 15.195312 C 1.332031 15.382812 1.144531 15.699219 1.125 16.050781 L 1.125 16.125 C 1.15625 16.675781 1.605469 17.113281 2.15625 17.128906 L 2.160156 17.128906 C 2.484375 17.128906 2.804688 17.128906 3.128906 17.128906 L 4.910156 17.128906 C 4.972656 18 5.558594 18.742188 6.394531 19.003906 C 6.546875 19.054688 6.707031 19.085938 6.867188 19.097656 L 6.867188 20.3125 C 6.867188 20.820312 6.867188 21.328125 6.867188 21.832031 C 6.886719 22.414062 7.371094 22.867188 7.949219 22.847656 C 8.53125 22.828125 8.984375 22.34375 8.964844 21.761719 L 8.964844 19.117188 L 10.949219 19.117188 L 10.949219 21.753906 C 10.933594 22.039062 11.03125 22.316406 11.222656 22.527344 C 11.410156 22.738281 11.675781 22.863281 11.960938 22.875 L 12.074219 22.875 C 12.621094 22.832031 13.042969 22.382812 13.050781 21.835938 C 13.054688 21.304688 13.054688 20.769531 13.050781 20.238281 L 13.050781 19.125 L 15.03125 19.125 L 15.03125 21.824219 C 15.042969 22.386719 15.488281 22.847656 16.050781 22.875 L 16.140625 22.875 C 16.507812 22.855469 16.835938 22.644531 17.007812 22.320312 C 17.105469 22.125 17.148438 21.910156 17.132812 21.695312 L 17.132812 19.105469 C 17.292969 19.09375 17.449219 19.058594 17.597656 19.007812 C 18.269531 18.792969 18.796875 18.265625 19.015625 17.59375 C 19.0625 17.445312 19.09375 17.289062 19.105469 17.132812 L 20.292969 17.132812 C 20.808594 17.132812 21.324219 17.132812 21.835938 17.132812 L 21.839844 17.132812 C 22.402344 17.117188 22.851562 16.671875 22.875 16.109375 L 22.875 16.023438 C 22.839844 15.472656 22.386719 15.042969 21.839844 15.035156 C 21.300781 15.035156 20.761719 15.035156 20.222656 15.035156 L 19.125 15.035156 L 19.125 13.050781 Z M 21.753906 13.050781 "/>
</g>
</defs>
<g id="surface1">
<use xlink:href="#surface5" mask="url(#mask0)"/>
<path style=" stroke:none;fill-rule:nonzero;fill:rgb(10.196079%,20.392157%,56.078434%);fill-opacity:1;" d="M 7.886719 1.5 L 7.929688 1.5 C 8.292969 1.507812 8.585938 1.804688 8.59375 2.167969 C 8.597656 3 8.59375 3.832031 8.59375 4.664062 C 8.144531 4.664062 7.691406 4.664062 7.242188 4.664062 C 7.242188 3.828125 7.242188 2.996094 7.242188 2.164062 C 7.25 1.808594 7.53125 1.519531 7.886719 1.5 Z M 7.886719 1.5 "/>
<path style=" stroke:none;fill-rule:nonzero;fill:rgb(10.196079%,20.392157%,56.078434%);fill-opacity:1;" d="M 11.953125 1.5 L 12.039062 1.5 C 12.390625 1.527344 12.667969 1.8125 12.675781 2.167969 C 12.679688 3 12.675781 3.832031 12.675781 4.664062 L 11.324219 4.664062 C 11.324219 3.832031 11.324219 3 11.324219 2.164062 C 11.332031 1.816406 11.605469 1.527344 11.953125 1.5 Z M 11.953125 1.5 "/>
<path style=" stroke:none;fill-rule:nonzero;fill:rgb(10.196079%,20.392157%,56.078434%);fill-opacity:1;" d="M 16.042969 1.5 L 16.109375 1.5 C 16.464844 1.519531 16.746094 1.804688 16.753906 2.160156 C 16.761719 2.996094 16.753906 3.828125 16.753906 4.664062 L 15.40625 4.664062 C 15.40625 3.832031 15.40625 3 15.40625 2.167969 C 15.410156 1.8125 15.691406 1.523438 16.042969 1.5 Z M 16.042969 1.5 "/>
<path style=" stroke:none;fill-rule:nonzero;fill:rgb(10.196079%,20.392157%,56.078434%);fill-opacity:1;" d="M 1.5 7.886719 C 1.519531 7.535156 1.808594 7.253906 2.160156 7.246094 C 2.996094 7.238281 3.828125 7.246094 4.660156 7.246094 C 4.660156 7.695312 4.660156 8.144531 4.660156 8.59375 C 3.851562 8.59375 3.042969 8.59375 2.234375 8.59375 C 2.074219 8.601562 1.917969 8.554688 1.785156 8.464844 C 1.613281 8.339844 1.507812 8.140625 1.5 7.929688 Z M 1.5 7.886719 "/>
<path style=" stroke:none;fill-rule:nonzero;fill:rgb(10.196079%,20.392157%,56.078434%);fill-opacity:1;" d="M 19.339844 7.242188 L 21.765625 7.242188 C 21.910156 7.234375 22.058594 7.273438 22.183594 7.347656 C 22.367188 7.46875 22.484375 7.667969 22.5 7.886719 L 22.5 7.929688 C 22.492188 8.113281 22.410156 8.289062 22.273438 8.417969 C 22.136719 8.539062 21.953125 8.601562 21.765625 8.59375 C 20.957031 8.59375 20.148438 8.59375 19.339844 8.59375 C 19.339844 8.140625 19.339844 7.691406 19.339844 7.242188 Z M 19.339844 7.242188 "/>
<path style=" stroke:none;fill-rule:nonzero;fill:rgb(10.196079%,20.392157%,56.078434%);fill-opacity:1;" d="M 1.5 11.957031 C 1.527344 11.609375 1.816406 11.335938 2.164062 11.328125 C 2.996094 11.320312 3.832031 11.328125 4.660156 11.328125 C 4.660156 11.777344 4.660156 12.226562 4.660156 12.675781 C 3.832031 12.675781 3 12.675781 2.167969 12.675781 C 1.816406 12.667969 1.527344 12.398438 1.5 12.046875 Z M 1.5 11.957031 "/>
<path style=" stroke:none;fill-rule:nonzero;fill:rgb(10.196079%,20.392157%,56.078434%);fill-opacity:1;" d="M 19.339844 11.324219 C 20.171875 11.324219 21.003906 11.324219 21.835938 11.324219 C 22.183594 11.332031 22.46875 11.601562 22.5 11.953125 L 22.5 12.039062 C 22.484375 12.226562 22.394531 12.398438 22.253906 12.519531 C 22.113281 12.628906 21.941406 12.683594 21.765625 12.675781 L 19.339844 12.675781 C 19.339844 12.226562 19.339844 11.773438 19.339844 11.324219 Z M 19.339844 11.324219 "/>
<path style=" stroke:none;fill-rule:nonzero;fill:rgb(10.196079%,20.392157%,56.078434%);fill-opacity:1;" d="M 1.824219 15.507812 C 1.972656 15.425781 2.140625 15.390625 2.308594 15.40625 C 3.089844 15.410156 3.871094 15.402344 4.652344 15.410156 C 4.675781 15.859375 4.652344 16.3125 4.664062 16.761719 C 3.832031 16.761719 2.996094 16.761719 2.164062 16.761719 C 1.808594 16.75 1.519531 16.46875 1.5 16.113281 L 1.5 16.050781 C 1.515625 15.828125 1.636719 15.625 1.824219 15.507812 Z M 1.824219 15.507812 "/>
<path style=" stroke:none;fill-rule:nonzero;fill:rgb(10.196079%,20.392157%,56.078434%);fill-opacity:1;" d="M 19.339844 15.40625 C 20.171875 15.40625 21 15.40625 21.832031 15.40625 C 22.183594 15.414062 22.472656 15.691406 22.5 16.042969 L 22.5 16.109375 C 22.480469 16.464844 22.191406 16.746094 21.835938 16.753906 C 21.003906 16.757812 20.171875 16.753906 19.339844 16.753906 C 19.339844 16.308594 19.339844 15.855469 19.339844 15.40625 Z M 19.339844 15.40625 "/>
<path style=" stroke:none;fill-rule:nonzero;fill:rgb(10.196079%,20.392157%,56.078434%);fill-opacity:1;" d="M 7.242188 19.335938 L 8.59375 19.335938 C 8.59375 20.148438 8.59375 20.957031 8.59375 21.769531 C 8.601562 21.953125 8.539062 22.136719 8.414062 22.277344 C 8.289062 22.414062 8.113281 22.496094 7.925781 22.5 L 7.886719 22.5 C 7.53125 22.484375 7.25 22.195312 7.242188 21.839844 C 7.238281 21.003906 7.242188 20.171875 7.242188 19.335938 Z M 7.242188 19.335938 "/>
<path style=" stroke:none;fill-rule:nonzero;fill:rgb(10.196079%,20.392157%,56.078434%);fill-opacity:1;" d="M 11.324219 19.335938 L 12.675781 19.335938 C 12.675781 20.167969 12.675781 21 12.675781 21.832031 C 12.667969 22.183594 12.398438 22.46875 12.046875 22.5 L 11.960938 22.5 C 11.78125 22.484375 11.617188 22.402344 11.496094 22.269531 C 11.378906 22.128906 11.316406 21.949219 11.324219 21.765625 C 11.324219 20.957031 11.324219 20.144531 11.324219 19.335938 Z M 11.324219 19.335938 "/>
<path style=" stroke:none;fill-rule:nonzero;fill:rgb(10.196079%,20.392157%,56.078434%);fill-opacity:1;" d="M 15.410156 21.828125 C 15.410156 21 15.410156 20.167969 15.410156 19.335938 L 16.761719 19.335938 C 16.761719 20.121094 16.761719 20.910156 16.761719 21.695312 C 16.773438 21.84375 16.746094 21.996094 16.679688 22.136719 C 16.570312 22.347656 16.355469 22.484375 16.113281 22.5 L 16.050781 22.5 C 15.695312 22.476562 15.417969 22.183594 15.410156 21.828125 Z M 15.410156 21.828125 "/>
<path style=" stroke:none;fill-rule:nonzero;fill:rgb(10.196079%,20.392157%,56.078434%);fill-opacity:1;" d="M 18.550781 6.261719 C 18.328125 5.828125 17.945312 5.496094 17.484375 5.347656 C 17.226562 5.273438 16.957031 5.238281 16.691406 5.25 C 13.464844 5.257812 10.242188 5.242188 7.011719 5.257812 C 6.273438 5.285156 5.621094 5.757812 5.367188 6.453125 C 5.265625 6.777344 5.226562 7.113281 5.25 7.449219 C 5.25 10.574219 5.25 13.699219 5.25 16.824219 C 5.242188 17.140625 5.3125 17.457031 5.449219 17.738281 C 5.671875 18.175781 6.054688 18.503906 6.515625 18.652344 C 6.816406 18.738281 7.132812 18.769531 7.445312 18.75 L 16.550781 18.75 C 16.867188 18.769531 17.179688 18.738281 17.484375 18.65625 C 18.042969 18.472656 18.476562 18.035156 18.65625 17.476562 C 18.738281 17.175781 18.769531 16.863281 18.75 16.554688 C 18.75 13.429688 18.75 10.304688 18.75 7.179688 C 18.757812 6.859375 18.6875 6.546875 18.550781 6.261719 Z M 18.550781 6.261719 "/>
<path style=" stroke:none;fill-rule:nonzero;fill:rgb(77.254903%,76.078433%,100%);fill-opacity:1;" d="M 5.625 6.230469 L 5.6875 6.082031 C 6.171875 6.082031 6.65625 6.085938 7.140625 6.097656 L 7.433594 6.097656 C 7.523438 6.097656 7.621094 6.09375 7.730469 6.089844 C 8.117188 6.070312 8.820312 6.0625 9.835938 6.0625 C 10.039062 6.0625 10.234375 6.0625 10.425781 6.066406 C 10.617188 6.070312 10.804688 6.074219 10.980469 6.082031 L 11.046875 6.304688 C 11.007812 6.363281 10.917969 6.394531 10.777344 6.394531 L 10.703125 6.394531 C 10.425781 6.390625 10.152344 6.40625 9.875 6.433594 C 9.617188 6.433594 9.359375 6.496094 9.125 6.617188 C 9.050781 6.683594 9.007812 6.777344 9.011719 6.878906 C 9.042969 7.242188 9.144531 7.597656 9.304688 7.925781 L 10.667969 11.089844 L 11.144531 12.140625 C 11.605469 13.25 12.058594 14.386719 12.507812 15.542969 C 12.558594 15.671875 12.605469 15.785156 12.644531 15.886719 L 13.242188 14.414062 C 13.554688 13.675781 13.867188 12.886719 14.183594 12.050781 L 14.800781 10.367188 C 14.8125 10.328125 14.84375 10.210938 14.898438 10.007812 C 15.308594 9.046875 15.601562 8.039062 15.765625 7.007812 C 15.761719 6.90625 15.71875 6.808594 15.644531 6.734375 C 15.535156 6.625 15.402344 6.550781 15.253906 6.507812 C 15.023438 6.460938 14.789062 6.421875 14.554688 6.402344 L 13.894531 6.320312 L 13.839844 6.097656 L 16.742188 6.070312 L 17.699219 6.070312 C 17.921875 6.058594 18.148438 6.078125 18.363281 6.132812 L 18.371094 6.207031 C 18.367188 6.273438 18.347656 6.335938 18.320312 6.394531 C 18.191406 6.4375 18.058594 6.46875 17.925781 6.484375 C 17.601562 6.5 17.289062 6.570312 16.992188 6.695312 C 16.828125 6.835938 16.699219 7.011719 16.617188 7.210938 L 14.265625 13.035156 C 13.53125 14.785156 13.011719 16.140625 12.703125 17.101562 L 12.441406 17.878906 C 12.382812 17.921875 12.316406 17.949219 12.246094 17.957031 C 12.167969 17.953125 12.09375 17.945312 12.019531 17.929688 C 11.308594 16.089844 10.730469 14.671875 10.28125 13.667969 L 7.542969 7.441406 C 7.429688 7.195312 7.28125 6.96875 7.097656 6.773438 C 6.769531 6.621094 6.421875 6.515625 6.0625 6.453125 C 5.945312 6.429688 5.828125 6.402344 5.714844 6.367188 Z M 5.625 6.230469 "/>
</g>
</svg>
